<?xml version="1.0" encoding="utf-8"?>
<!-- Generator: Adobe Illustrator 27.5.0, SVG Export Plug-In . SVG Version: 6.00 Build 0)  -->
<svg version="1.1" id="Layer_1" xmlns="http://www.w3.org/2000/svg" xmlns:xlink="http://www.w3.org/1999/xlink" x="0px" y="0px"
	 viewBox="0 0 3200 2000" style="enable-background:new 0 0 3200 2000;" xml:space="preserve">
<rect x="0" transform="matrix(-1 -1.224647e-16 1.224647e-16 -1 3200 2000)" style="fill:#FFFFFF;" width="3200" height="2000"/>
<g>
	<path style="fill:#DAECFA;" d="M448.329,1850.468c-556.932-764.759-116.931-1603.956,637.135-1630.484
		c615.544-21.654,579.801,352.151,1141.453,168.431c754.898-194.1,1000.175,833.789,549.745,1462.052
		C1181.323,1850.468,448.329,1850.468,448.329,1850.468z"/>
	<g>
		<g>
			<g>
				<path style="fill:#E49963;" d="M2353.997,1137.019c0,0-29.856,7.668-48.835,1.952c-18.979-5.718-51.643,3.673-56.903,10.592
					c-5.26,6.921-3.328,9.67,6.059,12.058c9.386,2.389,42.641,16.574,64.497,8.364c21.856-8.21,50.362-8.507,50.362-8.507
					L2353.997,1137.019z"/>
				<path style="fill:#4A75CB;" d="M2612.023,877.674c0,0-33.538,238.371-89.074,259.721
					c-27.403,10.534-148.508,34.416-184.332,36.815c0,0-8.776-7.12-6.638-36.098c0,0,126.882-46.582,144.907-71.915
					c26.827-37.702-16.654-154.023,17.009-189.433C2527.558,841.354,2584.254,826.135,2612.023,877.674z"/>
			</g>
			<path style="fill:#2B478B;" d="M2592.646,1822.782h-16.193c-8.302,0-15.094-6.792-15.094-15.094v-375.729
				c0-8.302,6.792-15.094,15.094-15.094h16.192c8.302,0,15.094,6.792,15.094,15.094v375.729
				C2607.74,1815.99,2600.947,1822.782,2592.646,1822.782z"/>
			<path style="fill:#2B478B;" d="M2727.679,1849.464c-15.004-31.052-73.389-54.21-143.129-54.21
				c-69.74,0-128.126,23.157-143.13,54.21H2727.679z"/>
			<path style="fill:#2B478B;" d="M2689.564,1744.167h-210.029c-2.208,0-4.015-1.807-4.015-4.015v-8.326
				c0-2.209,1.807-4.016,4.016-4.016h210.027c2.208,0,4.015,1.807,4.015,4.015v8.328
				C2693.578,1742.36,2691.771,1744.167,2689.564,1744.167z"/>
			<path style="fill:#163560;" d="M2600.721,1379.876c-9.784,16.597-21.099,32.147-32.763,46.876
				c-36.047,45.505-75.285,83.025-82.12,118.492c-1.358,7.068-3.518,14.681-6.337,22.701c-2.855,8.124-6.383,16.667-10.457,25.497
				c-15.296,33.227-38.171,70.458-61.011,104.3c-39.483,58.503-76.609,107.321-76.609,107.321l-68.086-2.902
				c2.728-6.825,32.423-87.604,72.148-186.319c16.131-40.074,33.284-82.701,49.834-123.809c2.205-5.49,4.41-10.956,6.592-16.376
				c5.06-12.581,10.039-24.962,14.901-37.022c37.301-92.694,67.01-166.505,67.01-166.505s149.085-56.474,164.568-19.881
				C2651.158,1282.424,2640.76,1311.984,2600.721,1379.876z"/>
			<path style="fill:#163560;" d="M2329.297,1792.683c0,0-3.483,56.184-14.353,56.989c-1.446,0.108-55.131,0.108-55.131,0.108
				l-68.532-0.399c0,0,0.449-16.513,20.48-20.004c20.033-3.491,53.562-17.569,65.697-44.044
				C2290.225,1757.479,2329.297,1792.683,2329.297,1792.683z"/>
			<path style="fill:#163560;" d="M2486.955,1632.178c0,0,47.358,30.43,42.762,40.314c-0.611,1.313-26.782,48.188-26.782,48.188
				l-33.756,59.644c0,0-14.198-8.441-7.481-27.633c6.717-19.194,10.771-55.333-6.431-78.834
				C2437.17,1649.131,2486.955,1632.178,2486.955,1632.178z"/>
			<path style="fill:#1C468A;" d="M2420.27,1246.999c0,0-184.52,114.891-205.408,193.223
				c-20.889,78.334,248.927,245.445,248.927,245.445s29.593-26.109,34.815-45.258c0,0-121.961-146.118-148.416-178.872
				c-16.249-20.115,240.237-69.636,271.57-118.376c31.334-48.74,20.116-89.75,20.116-89.75L2420.27,1246.999z"/>
			<path style="fill:#EE9849;" d="M2776.042,1499.454h-382.985c-7.659,0-13.926-6.267-13.926-13.927v-76.596
				c0-7.66,6.267-13.927,13.927-13.927h382.983c7.66,0,13.927,6.267,13.927,13.927v76.597
				C2789.968,1493.188,2783.701,1499.454,2776.042,1499.454z"/>
			<path style="fill:#E49963;" d="M2509.412,836.812c-18.38,11.384-28.508,25.835-28.508,25.835
				c44.83,11.596,119.149-29.947,119.149-29.947s-28.856-19.388-39.546-61.992c-0.542-2.15-1.034-4.353-1.468-6.609
				c-1.402-7.175-2.271-14.945-2.428-23.328l-20.594,18.448l-34.243,30.68c0,0,0.777,12.729,5.06,34.627
				C2507.578,828.346,2508.432,832.448,2509.412,836.812z"/>
			<path style="fill:#739AF0;" d="M2647.524,1048.478c-6.42,86.367,2.026,217.721-5.258,240.469
				c-6.287,19.628-77.92,7.96-106.513,1.406c-10.583-2.424-23.402-5.889-36.641-9.985c-36.929-11.435-77.167-27.762-81.485-39.885
				c-0.166-0.476-0.31-0.939-0.399-1.394c-0.398-1.76-0.31-3.409,0.078-5.081c1.439-6.177,6.985-12.862,7.638-28.161
				c0.731-17.081,0.62-37.195,1.262-58.825c0.033-2.435,0.067-5.092,0.333-7.516l0.01-0.887c0.011-0.465,0.023-0.918,0.033-1.384
				c0.62-24.121,1.882-49.482,3.343-74.633c0.93-15.795,2.004-31.437,3.243-46.426c3.222-38.689,7.561-73.094,13.306-94.845
				c9.387-35.456,30.088-58.582,48.928-75.53l13.628-11.689c15.209,3.321,33.187,1.118,49.448-6.587
				c17.601-8.359,23.677-14.347,26.744-12.088C2625.872,846.799,2655.107,942.896,2647.524,1048.478z"/>
			<path style="fill:#4A75CB;" d="M2499.112,1280.368c-36.929-11.435-77.167-27.762-81.485-39.885
				c-0.166-0.476-0.31-0.939-0.399-1.394c0.022-1.693,0.045-3.388,0.078-5.081c1.439-6.177,6.985-12.862,7.638-28.161
				c0.731-17.081,0.62-37.195,1.262-58.825c0.033-2.435,0.067-5.092,0.333-7.516l0.01-0.887c0.011-0.465,0.023-0.918,0.033-1.384
				l139.491-63.264C2566.073,1073.972,2574.109,1186.398,2499.112,1280.368z"/>
			<path style="fill:#D68D5D;" d="M2559.787,767.678C2559.787,767.677,2559.787,767.677,2559.787,767.678
				c-0.264-1.179-0.516-2.37-0.749-3.579c-4.7-1-13.552-2.877-23.021-4.88l-34.244,30.68c0,0,0.467,7.634,2.664,21.24
				C2538.139,800.885,2554.933,779.955,2559.787,767.678z"/>
			<path style="fill:#E49963;" d="M2488.234,789.563c0,0,73.465,8.287,77.92-37.543c4.457-45.83,16.939-75.626-29.777-82.854
				c-46.717-7.228-57.544,9.372-62.752,24.307C2468.417,708.409,2469.239,786.226,2488.234,789.563z"/>
			<path style="fill:#2B478B;" d="M2562.771,767.678c-11.092-4.299-9.352-28.75-17.15-47.794
				c-6.386-15.596-22.178-29.647-51.314-31.836c-45.879-3.448-20.267-43.739-15.385-50.027c0,0,35.094,4.812,71.066,10.755
				C2625.49,661.25,2570.187,758.208,2562.771,767.678z"/>
			<path style="fill:#E49963;" d="M2543.677,732.72c5.75-10.996,17.652-14.75,20-2.75s-8.448,23.197-12.5,20.25
				C2545.677,746.22,2543.677,732.72,2543.677,732.72z"/>
			<g>
				
					<rect x="2176.281" y="1025.083" transform="matrix(0.9511 -0.3089 0.3089 0.9511 -237.3879 727.7059)" style="fill:#4A75CB;" width="6.761" height="177.051"/>
				
					<rect x="2203.663" y="1185.75" transform="matrix(0.9998 -0.0214 0.0214 0.9998 -24.9116 49.3046)" style="fill:#4A75CB;" width="185.794" height="11.114"/>
			</g>
			<g>
				<path style="fill:#E49963;" d="M2369.36,1173.667c0,0-28.828,10.914-48.322,7.323c-19.494-3.591-50.923,9.343-55.388,16.801
					c-4.465,7.458-2.242,9.978,7.35,11.318c9.594,1.338,44.209,11.771,65.027,1.202c20.818-10.569,49.117-14.008,49.117-14.008
					L2369.36,1173.667z"/>
				<path style="fill:#739AF0;" d="M2597.222,887.455c0,0-7.054,240.616-59.897,267.959
					c-26.074,13.492-143.808,50.579-179.149,56.912c0,0-9.507-6.108-10.576-35.145c0,0,120.973-60.286,136.096-87.452
					c22.507-40.431-33.533-151.249-3.98-190.155C2509.267,860.67,2563.939,839.294,2597.222,887.455z"/>
			</g>
		</g>
		<g>
			<g>
				<path style="fill:#78ACEA;" d="M1863.483,1849.147h-635.165c-19.914,0-36.207-16.293-36.207-36.208V542.755
					c0-19.914,16.293-36.208,36.207-36.208h635.165c19.913,0,36.207,16.294,36.207,36.208v1270.185
					C1899.69,1832.854,1883.397,1849.147,1863.483,1849.147z"/>
				<path style="fill:#AFCDFB;" d="M1937.089,542.757v1270.187c0,19.908-16.295,36.203-36.213,36.203h-635.164
					c-19.919,0-36.202-16.295-36.202-36.203V542.757c0-19.919,16.283-36.213,36.202-36.213h635.164
					C1920.795,506.543,1937.089,522.838,1937.089,542.757z"/>
				<g>
					<path style="opacity:0.4;fill:#5E92DD;" d="M1686.991,557.367h-183.936c-3.937,0-7.156-3.22-7.156-7.157l0,0
						c0-3.936,3.22-7.156,7.156-7.156h183.936c3.936,0,7.156,3.22,7.156,7.156l0,0
						C1694.148,554.147,1690.927,557.367,1686.991,557.367z"/>
					<path style="opacity:0.4;fill:#5E92DD;" d="M1470.388,557.367L1470.388,557.367c-3.936,0-7.157-3.22-7.157-7.157l0,0
						c0-3.936,3.221-7.156,7.157-7.156l0,0c3.936,0,7.156,3.22,7.156,7.156l0,0C1477.544,554.147,1474.323,557.367,1470.388,557.367
						z"/>
				</g>
				<path style="fill:#95C0F4;" d="M1638.218,1774.959c0,12.669-5.115,24.154-13.385,32.495
					c-8.364,8.446-19.966,13.666-32.776,13.666c-25.492,0-46.161-20.67-46.161-46.161c0-16.387,8.54-30.771,21.421-38.959
					c7.145-4.551,15.638-7.19,24.741-7.19C1617.548,1728.81,1638.218,1749.467,1638.218,1774.959z"/>
				<rect x="1271.878" y="589.254" style="fill:#95C0F4;" width="627.457" height="1116.862"/>
				<path style="fill:#8CBAF1;" d="M1624.833,1807.454c-8.364,8.446-19.966,13.666-32.776,13.666
					c-25.492,0-46.161-20.67-46.161-46.161c0-16.387,8.54-30.771,21.421-38.959
					C1571.844,1755.65,1585.253,1788.52,1624.833,1807.454z"/>
			</g>
			<path style="opacity:0.9;fill:#78ACEA;" d="M1890.305,722.782h-1.467h-290.496H1306.37c-4.96,0-9.02,5.258-9.02,11.691v373.337
				c0,6.422,4.06,11.679,9.02,11.679h291.972h290.496h1.467c4.97,0,9.03-5.257,9.03-11.679V734.473
				C1899.335,728.04,1895.275,722.782,1890.305,722.782z"/>
			<path style="opacity:0.9;fill:#78ACEA;" d="M1672.451,1176.337h-1.144h-226.481h-227.632c-3.867,0-7.033,5.257-7.033,11.691
				v373.338c0,6.421,3.166,11.679,7.033,11.679h227.632h226.481h1.144c3.873,0,7.04-5.258,7.04-11.679v-373.338
				C1679.491,1181.594,1676.324,1176.337,1672.451,1176.337z"/>
			<g>
				<path style="fill:#FCECDB;" d="M2112.292,700.844v373.34c0,6.417-5.255,11.671-11.696,11.671h-756.052
					c-6.417,0-11.671-5.255-11.671-11.671v-373.34c0-6.441,5.255-11.696,11.671-11.696h756.052
					C2107.037,689.148,2112.292,694.404,2112.292,700.844z"/>
				<path style="fill:#F99746;" d="M2112.288,700.842v373.336c0,6.422-6.11,11.679-13.59,11.679H1722.58V689.151h376.119
					C2106.178,689.151,2112.288,694.408,2112.288,700.842z"/>
				<g>
					<path style="fill:#FCECDB;" d="M1907.209,834.064h-133.064c-4.66,0-8.474-3.813-8.474-8.474l0,0
						c0-4.661,3.813-8.474,8.474-8.474h133.064c4.66,0,8.474,3.813,8.474,8.474l0,0
						C1915.683,830.251,1911.87,834.064,1907.209,834.064z"/>
					<path style="fill:#FCECDB;" d="M1874.333,859.486h-101.206c-4.101,0-7.455-3.355-7.455-7.455v-2.037
						c0-4.1,3.354-7.455,7.455-7.455h101.206c4.099,0,7.455,3.355,7.455,7.455v2.037
						C1881.788,856.131,1878.432,859.486,1874.333,859.486z"/>
				</g>
				<g>
					<path style="fill:#FCECDB;" d="M1775.895,739.117c3.185-4.206,7.393-6.31,12.5-6.31c5.108,0,9.255,2.103,12.44,6.249
						c3.186,4.147,4.749,9.316,4.749,15.506c0,6.19-1.563,11.358-4.749,15.504c-3.185,4.148-7.331,6.25-12.44,6.25
						c-5.107,0-9.315-2.103-12.5-6.25c-3.186-4.146-4.748-9.315-4.748-15.504C1771.147,748.432,1772.709,743.263,1775.895,739.117z
						 M1797.59,742.002c-2.403-3.365-5.469-5.048-9.195-5.048c-3.726,0-6.79,1.682-9.195,5.048
						c-2.403,3.366-3.606,7.572-3.606,12.561c0,5.048,1.202,9.255,3.546,12.62c2.404,3.305,5.469,4.987,9.255,4.987
						c3.787,0,6.852-1.682,9.195-4.987c2.404-3.365,3.605-7.572,3.605-12.62C1801.196,749.574,1799.995,745.367,1797.59,742.002z"/>
					<path style="fill:#FCECDB;" d="M1839.897,738.035c2.825,3.425,4.268,8.294,4.268,14.483
						c0.239,13.102-6.853,23.919-18.271,23.799c-3.425,0-6.43-0.842-8.893-2.584v-4.266c2.644,1.803,5.468,2.703,8.533,2.703
						c9.976,0,14.123-9.074,14.304-17.968c-2.224,3.786-6.611,6.25-12.321,6.25c-3.786,0-7.031-1.262-9.676-3.726
						c-2.585-2.524-3.905-5.769-3.905-9.675c0-4.147,1.381-7.512,4.085-10.216c2.764-2.705,6.191-4.026,10.217-4.026
						C1833.166,732.807,1837.072,734.549,1839.897,738.035z M1821.207,739.838c-1.923,1.863-2.884,4.267-2.884,7.212
						c0,2.884,0.961,5.169,2.944,6.912c1.983,1.742,4.386,2.584,7.331,2.584c2.464,0,4.747-0.781,6.85-2.344
						c2.105-1.563,3.487-3.486,4.268-5.829c-0.722-7.212-4.689-11.418-11.239-11.418
						C1825.594,736.954,1823.191,737.915,1821.207,739.838z"/>
					<path style="fill:#FCECDB;" d="M1853.057,748.252c1.202-1.202,3.245-1.202,4.446,0c1.202,1.202,1.202,3.245,0,4.447
						c-1.201,1.202-3.244,1.202-4.446,0C1851.854,751.497,1851.854,749.454,1853.057,748.252z M1853.057,770.608
						c1.202-1.202,3.245-1.202,4.446,0c1.202,1.202,1.202,3.245,0,4.447c-1.201,1.202-3.244,1.202-4.446,0
						C1851.854,773.853,1851.854,771.81,1853.057,770.608z"/>
					<path style="fill:#FCECDB;" d="M1873.849,775.596v-37.26l-9.434,5.409v-4.267l9.916-5.949h3.905v42.068H1873.849z"/>
					<path style="fill:#FCECDB;" d="M1893.56,739.117c3.185-4.206,7.392-6.31,12.5-6.31s9.255,2.103,12.44,6.249
						c3.185,4.147,4.748,9.316,4.748,15.506c0,6.19-1.563,11.358-4.748,15.504c-3.185,4.148-7.331,6.25-12.44,6.25
						s-9.315-2.103-12.5-6.25c-3.186-4.146-4.748-9.315-4.748-15.504C1888.812,748.432,1890.374,743.263,1893.56,739.117z
						 M1915.255,742.002c-2.403-3.365-5.469-5.048-9.195-5.048c-3.726,0-6.79,1.682-9.195,5.048
						c-2.403,3.366-3.606,7.572-3.606,12.561c0,5.048,1.202,9.255,3.546,12.62c2.404,3.305,5.469,4.987,9.255,4.987
						c3.787,0,6.852-1.682,9.195-4.987c2.404-3.365,3.606-7.572,3.606-12.62C1918.86,749.574,1917.659,745.367,1915.255,742.002z"/>
					<path style="fill:#FCECDB;" d="M1949.147,775.596v-42.068h17.668c8.412,0,13.462,4.688,13.462,11.658
						c0,7.152-5.049,11.84-13.462,11.84h-13.221v18.57H1949.147z M1953.594,752.999h12.921c5.95,0,9.375-2.824,9.375-7.693
						c0-4.988-3.425-7.753-9.375-7.753h-12.921V752.999z"/>
					<path style="fill:#FCECDB;" d="M1989.111,775.596v-42.068h4.386l15.205,20.372l15.205-20.372h4.326v42.068h-4.386v-35.337
						l-13.763,18.389h-2.704l-13.882-18.389v35.337H1989.111z"/>
				</g>
				<path style="fill:#F9E5D1;" d="M1557.251,1085.855h-212.708c-6.417,0-11.671-5.255-11.671-11.671V820.477
					C1390.858,888.986,1504.391,1023.295,1557.251,1085.855z"/>
				<path style="fill:#F99746;" d="M1526.287,738.295c-42.562,0-77.066,34.504-77.066,77.068c0,42.563,77.066,137.19,77.066,137.19
					s77.067-94.627,77.067-137.19C1603.354,772.799,1568.85,738.295,1526.287,738.295z M1526.287,850.602
					c-19.895,0-36.022-16.128-36.022-36.023c0-19.895,16.127-36.023,36.022-36.023s36.023,16.128,36.023,36.023
					C1562.31,834.474,1546.182,850.602,1526.287,850.602z"/>
				<g>
					<path style="fill:#EFCBAB;" d="M1519.805,1016.518h-133.063c-4.661,0-8.475-3.813-8.475-8.474l0,0
						c0-4.66,3.813-8.474,8.475-8.474h133.063c4.66,0,8.475,3.814,8.475,8.474l0,0
						C1528.279,1012.705,1524.465,1016.518,1519.805,1016.518z"/>
					<path style="fill:#EFCBAB;" d="M1486.928,1041.94h-101.205c-4.101,0-7.456-3.354-7.456-7.455v-2.037
						c0-4.101,3.355-7.455,7.456-7.455h101.205c4.101,0,7.456,3.355,7.456,7.455v2.037
						C1494.384,1038.586,1491.029,1041.94,1486.928,1041.94z"/>
				</g>
			</g>
			<g>
				<path style="fill:#FCECDB;" d="M1738.964,1159.362v373.34c0,6.429-5.255,11.685-11.684,11.685H971.24
					c-6.441,0-11.696-5.256-11.696-11.685v-373.34c0-6.417,5.255-11.672,11.696-11.672h756.04
					C1733.709,1147.691,1738.964,1152.945,1738.964,1159.362z"/>
				<path style="fill:#F99746;" d="M1738.964,1159.364v373.336c0,6.434-5.257,11.691-11.679,11.691H1391.02v-396.707h336.265
					C1733.707,1147.685,1738.964,1152.942,1738.964,1159.364z"/>
				<g>
					<g>
						<path style="fill:#FCECDB;" d="M1562.44,1426.89c-6.679,0-12.884-3.539-16.274-9.335l-49.695-84.949
							c-5.259-8.991-2.235-20.541,6.755-25.8c8.987-5.256,20.541-2.232,25.799,6.754l31.88,54.496l60.031-123.505
							c4.553-9.366,15.84-13.269,25.203-8.717c9.368,4.554,13.271,15.838,8.717,25.204l-75.453,155.238
							c-3.042,6.258-9.282,10.334-16.236,10.601C1562.926,1426.885,1562.682,1426.89,1562.44,1426.89z"/>
					</g>
					<g>
						<path style="fill:#FCECDB;" d="M1562.444,1470.599c-64.539,0-117.046-52.507-117.046-117.046
							c0-64.54,52.507-117.047,117.046-117.047c64.54,0,117.047,52.507,117.047,117.047
							C1679.491,1418.092,1626.984,1470.599,1562.444,1470.599z M1562.444,1250.221c-56.977,0-103.332,46.355-103.332,103.332
							c0,56.977,46.355,103.331,103.332,103.331c56.978,0,103.332-46.354,103.332-103.331
							C1665.775,1296.576,1619.422,1250.221,1562.444,1250.221z"/>
					</g>
				</g>
				<path style="fill:#F9E5D1;" d="M1180.99,1544.386H971.24c-6.441,0-11.696-5.256-11.696-11.685v-288.899L1180.99,1544.386z"/>
				<g>
					<g>
						<path style="fill:#F99746;" d="M1060.986,1212.444c-23.154,0-41.924,18.769-41.924,41.923
							c0,23.155,18.77,41.924,41.924,41.924c23.154,0,41.924-18.769,41.924-41.924
							C1102.91,1231.213,1084.14,1212.444,1060.986,1212.444z M1090.024,1255.705h-29.038c-0.739,0-1.338-0.599-1.338-1.339v-31.22
							c0-0.739,0.599-1.338,1.338-1.338s1.338,0.599,1.338,1.338v29.882h27.7c0.739,0,1.338,0.599,1.338,1.338
							C1091.362,1255.107,1090.763,1255.705,1090.024,1255.705z"/>
						<g>
							<path style="fill:#EFCBAB;" d="M1276.693,1238.757H1143.63c-4.661,0-8.474-3.813-8.474-8.475l0,0
								c0-4.66,3.813-8.474,8.474-8.474h133.063c4.661,0,8.474,3.813,8.474,8.474l0,0
								C1285.167,1234.944,1281.354,1238.757,1276.693,1238.757z"/>
							<path style="fill:#EFCBAB;" d="M1243.817,1264.179h-101.205c-4.101,0-7.456-3.355-7.456-7.455v-2.037
								c0-4.101,3.355-7.456,7.456-7.456h101.205c4.101,0,7.455,3.355,7.455,7.456v2.037
								C1251.272,1260.824,1247.917,1264.179,1243.817,1264.179z"/>
						</g>
					</g>
					<g>
						<path style="fill:#F99746;" d="M1056.8,1374.71c-20.842,0-37.738,16.896-37.738,37.737c0,20.842,37.738,67.178,37.738,67.178
							s37.738-46.336,37.738-67.178C1094.537,1391.606,1077.642,1374.71,1056.8,1374.71z M1056.8,1429.703
							c-9.742,0-17.639-7.898-17.639-17.639c0-9.743,7.897-17.64,17.639-17.64c9.742,0,17.64,7.897,17.64,17.64
							C1074.439,1421.806,1066.542,1429.703,1056.8,1429.703z"/>
						<g>
							<path style="fill:#EFCBAB;" d="M1266.574,1402.22H1133.51c-4.66,0-8.474-3.813-8.474-8.474l0,0
								c0-4.661,3.813-8.475,8.474-8.475h133.064c4.66,0,8.474,3.813,8.474,8.475l0,0
								C1275.048,1398.407,1271.235,1402.22,1266.574,1402.22z"/>
							<path style="fill:#EFCBAB;" d="M1233.698,1427.642h-101.206c-4.1,0-7.455-3.355-7.455-7.455v-2.037
								c0-4.101,3.355-7.456,7.455-7.456h101.206c4.1,0,7.455,3.355,7.455,7.456v2.037
								C1241.153,1424.287,1237.798,1427.642,1233.698,1427.642z"/>
						</g>
					</g>
				</g>
			</g>
			<path style="fill:#FCECDB;" d="M2009.939,1051.347h-176.443c-15.353,0-27.913-12.561-27.913-27.914v-7.884
				c0-15.352,12.56-27.914,27.913-27.914h176.443c15.352,0,27.914,12.561,27.914,27.914v7.884
				C2037.853,1038.786,2025.292,1051.347,2009.939,1051.347z"/>
			<g>
				<g>
					<path style="fill:#F99746;" d="M1921.337,1033.415c-1.246,0-2.405-0.66-3.037-1.741l-9.271-15.851
						c-0.981-1.678-0.417-3.833,1.26-4.815c1.677-0.98,3.833-0.416,4.813,1.261l5.949,10.168l11.2-23.045
						c0.85-1.748,2.955-2.476,4.703-1.626c1.748,0.849,2.477,2.955,1.626,4.703l-14.078,28.965c-0.567,1.168-1.732,1.928-3.03,1.978
						C1921.427,1033.414,1921.382,1033.415,1921.337,1033.415z"/>
				</g>
				<g>
					<path style="fill:#F99746;" d="M1921.337,1041.571c-12.042,0-21.839-9.797-21.839-21.839c0-12.043,9.797-21.84,21.839-21.84
						c12.042,0,21.839,9.797,21.839,21.84C1943.176,1031.774,1933.379,1041.571,1921.337,1041.571z M1921.337,1000.451
						c-10.631,0-19.281,8.649-19.281,19.281c0,10.631,8.65,19.28,19.281,19.28c10.632,0,19.281-8.65,19.281-19.28
						C1940.617,1009.1,1931.969,1000.451,1921.337,1000.451z"/>
				</g>
			</g>
		</g>
		<g>
			<g>
				<path style="fill:#ED7D2B;" d="M658.091,814.845c0,0-89.215,89.613-93.561,125.511c-4.346,35.898,44.064,91.933,44.064,91.933
					L658.091,814.845z"/>
				<path style="fill:#163560;" d="M702.428,1797.516c0,0,3.247,50.59,13.036,51.294c1.303,0.094,49.648-0.011,49.648-0.011
					l61.716-0.491c0,0-0.437-14.87-18.483-17.974c-18.048-3.105-48.27-15.718-59.25-39.537
					C737.546,1765.738,702.428,1797.516,702.428,1797.516z"/>
				<path style="fill:#163560;" d="M564.966,1797.816c0,0,3.247,50.589,13.036,51.294c1.303,0.093,49.648-0.013,49.648-0.013
					l61.716-0.491c0,0-0.437-14.87-18.483-17.974c-18.048-3.104-48.27-15.718-59.249-39.537
					C600.084,1766.036,564.966,1797.816,564.966,1797.816z"/>
				<path style="fill:#163560;" d="M769.597,1253.595c0,0-15.917,103.269-75.733,286.658
					c-59.816,183.388-67.849,262.762-67.849,262.762l-64.598-1.671c0,0-0.986-200.278,26.562-292.491
					c27.551-92.214,5.267-332.236,5.267-332.236L769.597,1253.595z"/>
				<path style="fill:#1C468A;" d="M800.874,1181.823c0,0,2.623,155.562-23.878,346.63c-26.501,191.067-17.2,272.127-17.2,272.127
					l-64.462,2.284c0,0-38.939-190.998-28.102-286.625c10.838-95.629-53.467-327.948-53.467-327.948L800.874,1181.823z"/>
				<path style="fill:#FFB27D;" d="M675.288,818.045l34.395,22.446l49.62-9.359c-0.696-4.006-4.01-20.607-7.026-35.644
					c-0.182-0.887-0.364-1.774-0.535-2.641c-2.584-12.794-4.815-23.785-4.815-23.785l-46.406-20.356l-17.302-7.589
					c0.044,0.269,1.371,14.203,1.554,16.236C688.095,793.473,675.288,818.045,675.288,818.045z"/>
				<path style="fill:#9E332E;" d="M746.536,806.528c-0.964-0.403-59.815-17.631-66.2-15.508
					c-6.384,2.123-10.14,14.493-10.14,14.493l96.245,21.539C766.441,827.053,758.836,811.675,746.536,806.528z"/>
				<path style="fill:#B5453C;" d="M589.023,1201.488c10.067,45.456,175.991,50.488,218.668,9.114
					c4.853-4.715,5.046-26.608,3.148-56.122c-3.715-57.662-15.427-144.386-15.972-188.707c-0.266-21.402-3.255-43.288-7.214-63.157
					c-8.426-42.349-21.21-75.568-21.21-75.568s-81.094-26.022-96.246-21.533C597.192,827.137,578.954,1156.032,589.023,1201.488z"/>
				<path style="fill:#9E332E;" d="M810.839,1154.48c-3.715-57.662-15.427-144.386-15.972-188.707
					c-0.266-21.402-3.255-43.288-7.214-63.157l-48.768-8.497C738.885,894.119,691.647,1088.894,810.839,1154.48z"/>
				<path style="fill:#D46B1F;" d="M690.591,1062.387c33.333-16.671,86.557-75.483,90.279-91.742
					c23.721,3.742,25.055,23.742,25.055,23.742c-34,71.333-101.333,114-115.333,120.667
					C692.591,1086.387,690.591,1062.387,690.591,1062.387z"/>
				<path style="fill:#FFB27D;" d="M784.266,1074.155c0,0-3.305,7.949,3.685,13.267c6.99,5.318,11.534,13.948,9.948,20.265
					c-1.583,6.318-16.869,16.651-22.177,15c-5.31-1.648-16.128-9.942-14.972-13.273c1.155-3.333-7.328-29.211,5.586-39.208
					C779.251,1060.208,784.266,1074.155,784.266,1074.155z"/>
				<path style="fill:#B5453C;" d="M729.026,817.871c0,0,49.231,6.849,85.732,62.127c37.175,56.299,63.016,97.195,56.081,117.329
					c-6.933,20.136-70.39,90.056-81.357,90.079c-10.965,0.023-28.679-7.913-29.715-25.854c0,0,47.292-67.549,38.448-77.582
					c-3.779-4.288-60.9-47.977-68.62-28.023C716.824,988.963,729.026,817.871,729.026,817.871z"/>
				<path style="fill:#FCA56B;" d="M688.255,757.985c10.216,17.224,48.188,32.054,64.022,37.503
					c-0.182-0.887-0.364-1.774-0.535-2.641c-2.584-12.794-4.815-23.785-4.815-23.785l-46.406-20.356
					C690.273,748.589,684.038,750.895,688.255,757.985z"/>
				<path style="fill:#FFB27D;" d="M764.397,766.205c0,0-74.631,23.458-88.525-23.242c-13.893-46.701-32.883-75.126,14.179-92.078
					c47.063-16.952,61.664-1.899,70.094,12.561C768.573,677.905,783.451,758.898,764.397,766.205z"/>
				<path style="fill:#163560;" d="M757.203,658.949c0,0-4.646,54.391-15.897,52.054c-11.249-2.336-21.453-4.064-19.772,12.325
					c1.683,16.388,16.245,35.922-25.523,40.505c-34.573,3.794-76.481-88.546-66.998-105.489
					C656.38,609.454,796.779,599.295,757.203,658.949z"/>
			</g>
			<path style="fill:#D46B1F;" d="M685.258,865.053c18.667-31.795,51-43.333,72.775-40.631
				c23.891,7.964,28.258,22.812,28.258,22.812c-35.033-12.182-91.525,43.818-98.946,88.485
				C676.591,924.387,685.258,865.053,685.258,865.053z"/>
			<path style="fill:#ED7D2B;" d="M715.745,1137.72H524.343c-12.944,0-23.437-10.493-23.437-23.437V848.887
				c0-12.944,10.493-23.437,23.437-23.437h191.402c12.944,0,23.437,10.493,23.437,23.437v265.396
				C739.182,1127.227,728.689,1137.72,715.745,1137.72z"/>
			<path style="fill:#F99746;" d="M598.481,1137.72H407.079c-12.944,0-23.437-10.493-23.437-23.437V848.887
				c0-12.944,10.493-23.437,23.437-23.437h191.402c12.944,0,23.437,10.493,23.437,23.437v265.396
				C621.918,1127.227,611.425,1137.72,598.481,1137.72z"/>
			<path style="fill:#B5453C;" d="M540.442,926.9c-24.877,0-45.044,20.167-45.044,45.044c0,24.877,45.044,80.185,45.044,80.185
				s45.044-55.308,45.044-80.185C585.487,947.067,565.32,926.9,540.442,926.9z M540.442,992.541
				c-11.628,0-21.054-9.426-21.054-21.055c0-11.628,9.426-21.054,21.054-21.054c11.628,0,21.055,9.426,21.055,21.054
				C561.497,983.115,552.07,992.541,540.442,992.541z"/>
			<g>
				<path style="fill:#B5453C;" d="M411.757,1050.51v8.538c-2.255,0-4.551,0-6.845,0v-26.328c5.378,0,11.02,0,16.398,0
					c0,2.22,0,3.761,0,6.018h-9.553v5.754h8.463c0,2.257,0,3.687,0,6.018H411.757z"/>
				<path style="fill:#B5453C;" d="M440.503,1055.737h-10.38l-1.542,3.311H422v-0.977l11.847-25.688h2.896l11.885,25.688v0.977
					h-6.583L440.503,1055.737z M435.275,1043.025l-2.934,6.921h5.943L435.275,1043.025z"/>
				<path style="fill:#B5453C;" d="M465.003,1051.187c0-1.844-2.182-2.144-4.814-2.294c-5.716-0.414-9.478-2.37-9.553-8.085
					c-0.225-11.359,20.235-11.359,20.083,0c-2.369,0-4.099,0-6.393,0c0-3.5-7.071-3.197-7.296-0.077
					c-0.15,1.994,1.805,2.407,4.174,2.671c5.228,0.563,10.343,1.24,10.343,7.824c0,11.056-21.439,11.356-21.289-0.227
					c2.257,0,4.214,0,6.508,0C456.766,1054.347,465.003,1054.27,465.003,1051.187z"/>
				<path style="fill:#B5453C;" d="M473.891,1038.738c0-2.03,0-4.024,0-6.018h19.558c0,1.994,0,3.987,0,6.018h-6.431v20.31
					c-2.22,0-4.439,0-6.658,0v-20.31H473.891z"/>
			</g>
			<g>
				<path style="fill:#B5453C;" d="M414.843,1092.867h-9.93v-26.328h9.93C431.992,1066.616,431.992,1092.791,414.843,1092.867z
					 M411.645,1086.736h3.197c8.387,0,8.387-14.066,0-14.066h-3.197V1086.736z"/>
				<path style="fill:#B5453C;" d="M449.271,1072.557c-3.912,0-5.868,0-9.742,0v3.724h8.952c0,1.994,0,3.987,0,5.981h-8.952
					c0,1.54,0,3.044,0,4.624c3.874,0,6.131,0,10.08,0c0,1.957,0,3.987,0,5.981c-6.168,0-10.682,0-16.775,0
					c0-8.802,0-17.603,0-26.328c6.093,0,10.268,0,16.436,0C449.271,1068.496,449.271,1070.527,449.271,1072.557z"/>
				<path style="fill:#B5453C;" d="M462.145,1086.813h9.553c0,2.257,0,3.797,0,6.054c-5.416,0-10.983,0-16.324,0v-26.328
					c2.257,0,4.476,0,6.771,0C462.145,1080.155,462.145,1075.604,462.145,1086.813z"/>
				<path style="fill:#B5453C;" d="M487.507,1086.963c0,2.217,0,3.611,0,5.904c-4.476,0-8.876,0-13.352,0c0-2.294,0-3.687,0-5.904
					h3.349v-14.556h-3.085c0-2.257,0-3.647,0-5.868c4.289,0,8.538,0,12.826,0c0,2.22,0,3.611,0,5.868h-3.084v14.556H487.507z"/>
				<path style="fill:#B5453C;" d="M501.732,1081.472h0.188l6.018-14.932h6.468v1.017l-11.17,25.611h-2.857l-11.284-25.611v-1.017
					h6.47L501.732,1081.472z"/>
				<path style="fill:#B5453C;" d="M534.768,1072.557c-3.912,0-5.868,0-9.742,0v3.724h8.952c0,1.994,0,3.987,0,5.981h-8.952
					c0,1.54,0,3.044,0,4.624c3.874,0,6.131,0,10.08,0c0,1.957,0,3.987,0,5.981c-6.168,0-10.682,0-16.775,0
					c0-8.802,0-17.603,0-26.328c6.093,0,10.268,0,16.436,0C534.768,1068.496,534.768,1070.527,534.768,1072.557z"/>
				<path style="fill:#B5453C;" d="M563.139,1091.891v0.977h-7.523l-4.513-7.748h-3.499v7.748c-2.257,0-4.551,0-6.733,0
					c0-8.765,0-17.526,0-26.328c3.799,0,7.711,0,11.547,0c10.344,0.037,12.224,12.486,5.566,17L563.139,1091.891z M552.419,1072.557
					c-1.579-0.037-3.234,0-4.814,0c0,2.144,0,4.401,0,6.508h4.814C556.067,1079.065,556.256,1072.594,552.419,1072.557z"/>
				<path style="fill:#B5453C;" d="M579.325,1092.867h-6.658v-11.058l-8.838-14.253v-1.017h7.26l4.776,8.765h0.263l4.776-8.765
					h7.298v1.017l-8.877,14.253V1092.867z"/>
			</g>
		</g>
	</g>
	<path style="fill:#2E3552;" d="M236.512,1854.509h2750.446c1.786,0,3.248-1.461,3.248-3.248v-0.015
		c0-1.787-1.462-3.248-3.248-3.248H236.513c-1.786,0-3.248,1.462-3.248,3.248v0.015
		C233.264,1853.047,234.726,1854.509,236.512,1854.509z"/>
</g>
</svg>
