<?xml version="1.0" encoding="utf-8"?>
<!-- Generator: Adobe Illustrator 27.5.0, SVG Export Plug-In . SVG Version: 6.00 Build 0)  -->
<svg version="1.1" xmlns="http://www.w3.org/2000/svg" xmlns:xlink="http://www.w3.org/1999/xlink" x="0px" y="0px"
	 viewBox="0 0 750 500" style="enable-background:new 0 0 750 500;" xml:space="preserve">
<g id="BACKGROUND">
	<polygon style="fill:#FFFFFF;" points="375,0 0,0 0,250 0,500 375,500 750,500 750,250 750,0 	"/>
</g>
<g id="OBJECTS">
	<g>
		<path style="fill:#FFEEC9;" d="M665.063,408.929c5.338-22.275,8.185-45.518,8.185-69.429
			c0-163.943-132.902-296.845-296.845-296.845c-163.943,0-296.845,132.902-296.845,296.845c0,23.911,2.846,47.155,8.185,69.429
			H665.063z"/>
		<g>
			<g>
				<path style="fill:#4D98C3;" d="M660.267,390.151c34.025,0.592,29.592,38.482,29.592,38.482H44.346
					c0,0-3.734-23.123,19.343-23.518c7.878-23.877,34.051-25.869,46.888-10.285c6.983-52.565,65.465-58.15,104.631-27.556
					c55.127-55.867,179.991-95.056,195.91-57.521c65.587-52.287,174.903,33.437,177.564,53.389
					C646.532,335.281,660.267,390.151,660.267,390.151z"/>
			</g>
			<g>
				<g>
					<defs>
						<path id="XMLID_8_" d="M572.557,314.097c0,0,26.904-9.786,29.102-34.63c3-33.914-15.563-238.484-34.563-236.812
							c-19,1.672-49.058,199.607-41.41,240.133c4.927,26.104,30.943,30.747,30.943,30.747L572.557,314.097z"/>
					</defs>
					<use xlink:href="#XMLID_8_"  style="overflow:visible;fill:#53B9CD;"/>
					<clipPath id="XMLID_00000018228050837023014870000005902834675178218417_">
						<use xlink:href="#XMLID_8_"  style="overflow:visible;"/>
					</clipPath>
					<path style="clip-path:url(#XMLID_00000018228050837023014870000005902834675178218417_);fill:#4D98C3;" d="M548.55,180.608
						c0.564,14.452,6.599,28.401,18.546,39.453c-1.202-5.917,9.86-20.04,17.356-21.471c20.826-3.975,21.249,21.963,17.527,27.202
						c9.731-2.243,8.86-0.153,11.984,7.381c11.959-21.399,34.142-39.207,61.213-49.141c6.251,20.041,5.207,41.436-2.98,61.048
						c-8.513,20.392-25.444,39.272-49.697,49.359c-24.253,10.087-56.137,9.978-77.891-3.128
						c-10.785-6.497-18.538-15.632-24.319-25.259c-16.43-27.364-17.866-59.072-10.93-88.802
						c2.391-10.248,27.734-116.383,42.235-116.198C551.593,61.051,547.565,155.35,548.55,180.608z"/>
					<path style="clip-path:url(#XMLID_00000018228050837023014870000005902834675178218417_);fill:#84CDDB;" d="M570.628,80.654
						c-3.534,90.019,28.625,64.916,36.217,102.8c1.222-33.161-16.375-33.682-11.743-66.54
						c4.342-30.798,11.265-88.195-24.621-102.455c-9.631-3.827-11.415,9.539-9.861,21.067c0,0-12.213,7.426-8.234,20.305
						C556.344,68.64,570.628,80.654,570.628,80.654z"/>
				</g>
				<polygon style="fill:#4D98C3;" points="556.628,313.535 556.628,399.636 577.561,399.636 572.557,314.097 				"/>
			</g>
			<g>
				<g>
					<defs>
						<path id="XMLID_7_" d="M112.043,314.097c0,0,26.904-9.786,29.102-34.63c3-33.914-15.564-238.484-34.563-236.812
							c-19,1.672-49.058,199.607-41.41,240.133c4.926,26.104,30.943,30.747,30.943,30.747L112.043,314.097z"/>
					</defs>
					<use xlink:href="#XMLID_7_"  style="overflow:visible;fill:#53B9CD;"/>
					<clipPath id="XMLID_00000107579413531471817750000009890076012529613485_">
						<use xlink:href="#XMLID_7_"  style="overflow:visible;"/>
					</clipPath>
					<path style="clip-path:url(#XMLID_00000107579413531471817750000009890076012529613485_);fill:#4D98C3;" d="M75.519,230.511
						c0.4,13.143,4.683,25.828,13.162,35.879c-0.853-5.381,4.611-10.751,9.976-9.805c5.365,0.946,8.663,7.861,6.021,12.625
						c6.906-2.04,15.047,2.253,17.264,9.104c8.487-19.46,24.23-35.655,43.443-44.69c4.437,18.226,3.695,37.682-2.115,55.518
						c-6.042,18.545-18.058,35.715-35.27,44.888c-17.212,9.173-39.84,9.074-55.279-2.845c-7.654-5.909-13.157-14.216-17.259-22.971
						c-11.66-24.886-12.68-53.721-7.757-80.759c1.697-9.32,19.683-105.841,29.974-105.673
						C77.679,121.783,74.82,207.54,75.519,230.511z"/>
					<path style="clip-path:url(#XMLID_00000107579413531471817750000009890076012529613485_);fill:#84CDDB;" d="M114.768,94.699
						c-7.171,45.981,19.876,95.787,32.013,132.469c-2.815-33.064-3.922-66.273-3.316-99.451c0.568-31.097,0.468-88.91-36.885-98.706
						C96.557,26.382,96.41,39.866,99.353,51.12c0,0-5.706,21.155-0.193,33.455C104.644,96.808,114.768,94.699,114.768,94.699z"/>
				</g>
				<polygon style="fill:#4D98C3;" points="96.115,313.535 96.115,399.636 117.048,399.636 112.043,314.097 				"/>
			</g>
		</g>
		<path style="fill:#FFB23B;" d="M359.463,143.208H216.747c0,0-17.486-38.967,36.236-29.264
			c22.265-58.518,73.335-23.626,54.035,19.048C336.95,109.954,356.703,129.906,359.463,143.208z"/>
		<path style="fill:#FFB23B;" d="M443.159,111.883c0,0,5.894,2.879,9.405,14.275c9.928-13.633,16.165-14.275,16.165-14.275
			s-8.063-2.985-15.091,6.81C449.287,110.126,443.159,111.883,443.159,111.883z"/>
		<path style="fill:#FFB23B;" d="M469.704,93.502c0,0,13.277-2.455,17.405,6.136c13.5-8.479,19.525-4.463,19.525-4.463
			s-8.256-9.26-18.465,0.112C480.638,86.585,469.704,93.502,469.704,93.502z"/>
	</g>
	<g>
		<path style="fill:#FFCD3B;" d="M82.477,299.554H44.122c-1.933,0-3.5-1.567-3.5-3.5c0-1.933,1.567-3.5,3.5-3.5h38.355
			c1.933,0,3.5,1.567,3.5,3.5C85.977,297.986,84.41,299.554,82.477,299.554z"/>
		<path style="fill:#FFCD3B;" d="M128.534,335.151H36.42c-1.933,0-3.5-1.567-3.5-3.5c0-1.933,1.567-3.5,3.5-3.5h92.114
			c1.933,0,3.5,1.567,3.5,3.5C132.034,333.584,130.467,335.151,128.534,335.151z"/>
		<path style="fill:#FFCD3B;" d="M99.709,355.479H60.951c-1.933,0-3.5-1.567-3.5-3.5c0-1.933,1.567-3.5,3.5-3.5h38.757
			c1.933,0,3.5,1.567,3.5,3.5C103.209,353.912,101.642,355.479,99.709,355.479z"/>
	</g>
	<g>
		<ellipse style="opacity:0.2;fill:#4D98C3;" cx="358.608" cy="453.68" rx="230.074" ry="10.627"/>
		<g>
			<g>
				<g>
					<rect x="457.019" y="256.427" style="fill:#3D2039;" width="72.777" height="151.426"/>
					<g>
						<defs>
							<path id="XMLID_1_" d="M467.16,417.396H170.165c-6.846,0-12.397-5.55-12.397-12.397V190.07
								c0-6.847,5.55-12.397,12.397-12.397H467.16c6.846,0,12.397,5.55,12.397,12.397v214.929
								C479.557,411.845,474.007,417.396,467.16,417.396z"/>
						</defs>
						<use xlink:href="#XMLID_1_"  style="overflow:visible;fill:#535FCD;"/>
						<clipPath id="XMLID_00000183937443131510964840000017729363921484282030_">
							<use xlink:href="#XMLID_1_"  style="overflow:visible;"/>
						</clipPath>
						
							<rect x="143.149" y="166.541" style="clip-path:url(#XMLID_00000183937443131510964840000017729363921484282030_);fill:#45459B;" width="353.52" height="263.677"/>
						<g style="clip-path:url(#XMLID_00000183937443131510964840000017729363921484282030_);">
							<polygon style="fill:#3B3685;" points="406.219,353.119 334.877,353.119 328.151,327.396 406.219,327.396 							"/>
							<polygon style="fill:#3B3685;" points="406.219,315.192 324.115,315.192 317.388,289.469 406.219,289.469 							"/>
							<g>
								<path style="fill:#3B3685;" d="M462.187,289.469c0-29.748-24.202-53.95-53.95-53.95c-26.802,0-49.093,19.648-53.247,45.296
									h15.071c3.951-17.436,19.562-30.497,38.176-30.497c21.588,0,39.151,17.563,39.151,39.151
									c0,19.152-13.826,35.124-32.018,38.489v14.976C441.756,339.43,462.187,316.798,462.187,289.469z"/>
							</g>
						</g>
						
							<circle style="clip-path:url(#XMLID_00000183937443131510964840000017729363921484282030_);fill:#535FCD;" cx="185.167" cy="347.51" r="6.443"/>
						
							<circle style="clip-path:url(#XMLID_00000183937443131510964840000017729363921484282030_);fill:#535FCD;" cx="208.799" cy="347.51" r="6.443"/>
						<path style="clip-path:url(#XMLID_00000183937443131510964840000017729363921484282030_);fill:#535FCD;" d="M238.873,347.51
							c0,3.558-2.884,6.443-6.442,6.443c-3.558,0-6.442-2.884-6.442-6.443s2.884-6.443,6.442-6.443
							C235.989,341.068,238.873,343.952,238.873,347.51z"/>
						
							<circle style="clip-path:url(#XMLID_00000183937443131510964840000017729363921484282030_);fill:#535FCD;" cx="256.062" cy="347.51" r="6.443"/>
						
							<circle style="clip-path:url(#XMLID_00000183937443131510964840000017729363921484282030_);fill:#535FCD;" cx="279.694" cy="347.51" r="6.443"/>
						<path style="clip-path:url(#XMLID_00000183937443131510964840000017729363921484282030_);fill:#535FCD;" d="M309.768,347.51
							c0,3.558-2.884,6.443-6.443,6.443c-3.558,0-6.442-2.884-6.442-6.443s2.884-6.443,6.442-6.443
							C306.884,341.068,309.768,343.952,309.768,347.51z"/>
						
							<rect x="143.149" y="364.417" style="clip-path:url(#XMLID_00000183937443131510964840000017729363921484282030_);fill:#3D2039;" width="353.52" height="263.677"/>
						
							<rect x="143.149" y="369.737" style="clip-path:url(#XMLID_00000183937443131510964840000017729363921484282030_);fill:#535FCD;" width="353.52" height="263.677"/>
						<path style="clip-path:url(#XMLID_00000183937443131510964840000017729363921484282030_);fill:#FFFFFF;" d="M470.523,379.744
							c0,2.15-1.743,3.892-3.892,3.892c-2.15,0-3.892-1.743-3.892-3.892c0-2.15,1.743-3.892,3.892-3.892
							C468.78,375.851,470.523,377.594,470.523,379.744z"/>
						
							<rect x="143.149" y="-48.715" style="clip-path:url(#XMLID_00000183937443131510964840000017729363921484282030_);fill:#3D2039;" width="353.52" height="263.677"/>
						
							<rect x="143.149" y="-79.423" style="clip-path:url(#XMLID_00000183937443131510964840000017729363921484282030_);fill:#535FCD;" width="353.52" height="263.677"/>
						
							<rect x="143.149" y="410.929" style="clip-path:url(#XMLID_00000183937443131510964840000017729363921484282030_);fill:#45459B;" width="353.52" height="263.677"/>
						
							<rect x="140.775" y="403.921" style="clip-path:url(#XMLID_00000183937443131510964840000017729363921484282030_);fill:#3D2039;" width="71.607" height="19.886"/>
						
							<ellipse transform="matrix(0.7071 -0.7071 0.7071 0.7071 -178.9813 415.5141)" style="clip-path:url(#XMLID_00000183937443131510964840000017729363921484282030_);fill:#FFB23B;" cx="412.079" cy="423.807" rx="40.802" ry="40.802"/>
						
							<ellipse transform="matrix(0.9732 -0.2298 0.2298 0.9732 -90.9539 66.4503)" style="clip-path:url(#XMLID_00000183937443131510964840000017729363921484282030_);fill:#FFB23B;" cx="239.879" cy="423.807" rx="40.802" ry="40.802"/>
					</g>
					<g>
						<defs>
							<path id="XMLID_2_" d="M619.59,417.396H497.093c-5.851,0-10.595-4.743-10.595-10.595V240.849h48.87
								c4.078,0,7.955,1.771,10.625,4.854l56.499,65.245l19.193,6.005c5.058,1.582,8.5,6.267,8.5,11.566v78.281
								C630.185,412.652,625.441,417.396,619.59,417.396z"/>
						</defs>
						<use xlink:href="#XMLID_2_"  style="overflow:visible;fill:#535FCD;"/>
						<clipPath id="XMLID_00000155112628571567729870000002537654405099667864_">
							<use xlink:href="#XMLID_2_"  style="overflow:visible;"/>
						</clipPath>
						
							<rect x="468.975" y="229.022" style="clip-path:url(#XMLID_00000155112628571567729870000002537654405099667864_);fill:#535FCD;" width="175.54" height="198.865"/>
						
							<rect x="592.596" y="403.921" style="clip-path:url(#XMLID_00000155112628571567729870000002537654405099667864_);fill:#3D2039;" width="46.718" height="19.886"/>
						
							<ellipse transform="matrix(0.7071 -0.7071 0.7071 0.7071 -134.7127 522.388)" style="clip-path:url(#XMLID_00000155112628571567729870000002537654405099667864_);fill:#FFB23B;" cx="563.222" cy="423.807" rx="40.802" ry="40.802"/>
					</g>
					
						<ellipse transform="matrix(0.9732 -0.2298 0.2298 0.9732 -90.9537 66.4501)" style="fill:#3D2039;" cx="239.879" cy="423.807" rx="31.08" ry="31.08"/>
					
						<ellipse transform="matrix(0.9732 -0.2298 0.2298 0.9732 -90.9536 66.4501)" style="fill:#53B9CD;" cx="239.879" cy="423.807" rx="21.977" ry="21.977"/>
					<path style="fill:#DEE8FF;" d="M259.125,423.807c0-10.629-8.617-19.246-19.246-19.246s-19.246,8.616-19.246,19.246
						c0,10.629,8.617,19.246,19.246,19.246S259.125,434.436,259.125,423.807z"/>
					<path style="fill:#3D2039;" d="M246.29,423.807c0-3.541-2.87-6.411-6.411-6.411c-3.541,0-6.411,2.87-6.411,6.411
						c0,3.541,2.87,6.411,6.411,6.411C243.42,430.217,246.29,427.347,246.29,423.807z"/>
					<circle style="fill:#FFFFFF;" cx="239.879" cy="423.807" r="3.332"/>
					
						<ellipse transform="matrix(0.9951 -0.0985 0.0985 0.9951 -39.7553 42.6676)" style="fill:#3D2039;" cx="412.079" cy="423.807" rx="31.08" ry="31.08"/>
					
						<ellipse transform="matrix(0.9732 -0.2298 0.2298 0.9732 -86.3471 106.0134)" style="fill:#53B9CD;" cx="412.079" cy="423.807" rx="21.977" ry="21.977"/>
					<path style="fill:#DEE8FF;" d="M431.325,423.807c0-10.629-8.617-19.246-19.246-19.246s-19.246,8.616-19.246,19.246
						c0,10.629,8.617,19.246,19.246,19.246S431.325,434.436,431.325,423.807z"/>
					<path style="fill:#3D2039;" d="M418.49,423.807c0-3.541-2.87-6.411-6.411-6.411c-3.541,0-6.411,2.87-6.411,6.411
						c0,3.541,2.87,6.411,6.411,6.411C415.62,430.217,418.49,427.347,418.49,423.807z"/>
					<path style="fill:#FFFFFF;" d="M415.412,423.807c0-1.841-1.492-3.332-3.332-3.332c-1.841,0-3.333,1.492-3.333,3.332
						c0,1.84,1.492,3.332,3.333,3.332C413.92,427.139,415.412,425.647,415.412,423.807z"/>
					
						<ellipse transform="matrix(0.9732 -0.2298 0.2298 0.9732 -82.304 140.7389)" style="fill:#3D2039;" cx="563.222" cy="423.807" rx="31.08" ry="31.08"/>
					
						<ellipse transform="matrix(0.9732 -0.2298 0.2298 0.9732 -82.3039 140.7388)" style="fill:#53B9CD;" cx="563.222" cy="423.807" rx="21.977" ry="21.977"/>
					<path style="fill:#DEE8FF;" d="M582.468,423.807c0-10.629-8.617-19.246-19.246-19.246c-10.629,0-19.246,8.616-19.246,19.246
						c0,10.629,8.617,19.246,19.246,19.246C573.851,443.052,582.468,434.436,582.468,423.807z"/>
					<path style="fill:#3D2039;" d="M569.633,423.807c0-3.541-2.87-6.411-6.411-6.411c-3.541,0-6.411,2.87-6.411,6.411
						c0,3.541,2.87,6.411,6.411,6.411C566.762,430.217,569.633,427.347,569.633,423.807z"/>
					<path style="fill:#FFFFFF;" d="M566.554,423.807c0-1.841-1.492-3.332-3.332-3.332c-1.84,0-3.333,1.492-3.333,3.332
						c0,1.84,1.492,3.332,3.333,3.332C565.062,427.139,566.554,425.647,566.554,423.807z"/>
				</g>
				<g>
					<defs>
						<path id="XMLID_6_" d="M496.069,251.734v60.768h91.473l-46.647-56.124c-2.445-2.942-6.072-4.643-9.897-4.643H496.069z"/>
					</defs>
					<use xlink:href="#XMLID_6_"  style="overflow:visible;fill:#FFFFFF;"/>
					<clipPath id="XMLID_00000091016060457220495900000002387571899738033327_">
						<use xlink:href="#XMLID_6_"  style="overflow:visible;"/>
					</clipPath>
					
						<rect x="479.557" y="240.849" style="clip-path:url(#XMLID_00000091016060457220495900000002387571899738033327_);fill:#FFFFFF;" width="123.354" height="88.42"/>
					<g style="clip-path:url(#XMLID_00000091016060457220495900000002387571899738033327_);">
						<path style="fill:#482441;" d="M552.283,326.707L552.283,326.707c1.469,0.382,2.97-0.5,3.352-1.969l4.778-18.392
							c0.382-1.469-0.5-2.97-1.969-3.352l0,0c-1.469-0.382-2.97,0.5-3.351,1.969l-4.778,18.392
							C549.932,324.825,550.814,326.325,552.283,326.707z"/>
						<path style="fill:#482441;" d="M561.436,314.564c0,0,3.635-9.748,12.44-9.01c8.806,0.738,9.691,10.386,9.691,10.386
							L561.436,314.564z"/>
						<g>
							<g>
								<path style="fill:#FFCD3B;" d="M507.548,302.502c0,0-7.749-0.615-5.781-7.503c-3.936,0.738-6.421-9.593-0.32-11.93
									c-3.37-1.353-5.589-13.487,4.382-13.529c-1.479-8.241,15.102-15.122,20.443-4.251c5.183-2.385,10.138,9.184-0.238,12.285
									c-7.994,8.713-11.739,23.385-11.739,23.385L507.548,302.502z"/>
								<path style="fill:#FF95A4;" d="M551.002,309.132c0,0-13.535,7.375-18.929,6.773c-4.414-0.493-13.793-5.671-13.793-5.671
									l4.651-6.642l9.508,3.633c2.017-0.069,14.705-1.07,16.566-2.243c0,0,4.42-4.207,6.005-4.211
									c0.702-0.002,4.851,2.027,4.757,3.509c-0.034,0.54-3.899,0.624-3.899,0.624S554.62,309.391,551.002,309.132z"/>
								<g>
									<defs>
										<path id="XMLID_9_" d="M532.184,318.239c4.507,0.82,17.519-6.583,17.519-6.583l-2.807-6.024l-14.457,1.594l-9.296-5.858
											c-0.64-2.623-1.18-4.969-1.18-4.969s-2.977-2.89-7.832-3.655c-10.488,5.808-9.613,42.159-9.613,42.159
											s13.355,4.841,28.936-2.96c-2.941-7.106-4.729-11.659-5.85-14.72C529.471,317.672,531.109,318.044,532.184,318.239z"/>
									</defs>
									<use xlink:href="#XMLID_9_"  style="overflow:visible;fill:#53B9CD;"/>
									<clipPath id="XMLID_00000141416336162000663250000008656182798395312519_">
										<use xlink:href="#XMLID_9_"  style="overflow:visible;"/>
									</clipPath>
									<path style="clip-path:url(#XMLID_00000141416336162000663250000008656182798395312519_);fill:#4D98C3;" d="
										M520.983,308.458c2.195,1.9,5.161,2.717,8.062,2.819c2.901,0.102,5.78-0.451,8.63-1.002
										c5.771-1.116,11.541-2.231,17.312-3.347c-0.125,2.536-0.273,5.162-1.438,7.419c-1.044,2.021-2.823,3.568-4.708,4.841
										c-2.979,2.011-6.303,3.453-9.662,4.73c-6.044,2.297-12.43,4.117-18.884,3.731c-6.454-0.386-13.029-3.293-16.517-8.737
										c-1.365-2.131-2.215-4.565-2.69-7.051c-1.004-5.252-0.231-11.059,3.12-15.226c2.17-2.699,9.597-8.525,12.003-3.427
										C518.636,298.352,516.026,304.167,520.983,308.458z"/>
								</g>
								<path style="fill:#FF95A4;" d="M511.705,282.893c0,0,1.486,4.296,4.64,5.762l-2.213,4.088c0,0,2.096,5.271,7.832,3.655
									c0.344-3.268,1.03-5.7,1.03-5.7s6.581,0.101,7.806-2.803c1.439-3.41-2.469-17.542-2.469-17.542s-5.594,7.471-15.067,9.168
									c-0.302-1.768,0.003-1.997,0.003-1.997s-4.749-1.932-4.651,2.408C508.674,282.491,511.705,282.893,511.705,282.893z"/>
								<g>
									<path style="fill:#DEE8FF;" d="M521.867,281.792c-0.548,1.235,1.732,6.505,5.029,6.845
										c2.004,0.206,4.639-1.347,5.176-4.428c0.594-3.403-1.311-6.819-2.72-6.56C527.944,277.906,521.867,281.792,521.867,281.792
										z"/>
									<polyline style="fill:#DEE8FF;" points="524.744,281.083 513.264,279.52 513.191,279.016 525.398,280.386 									"/>
									<path style="fill:#DEE8FF;" d="M522.786,282.771l-11.08,0.122c0,0-0.196,0.36,0.231,0.585
										c1.094,0.024,10.995,0.087,10.995,0.087"/>
									<path style="fill:#BBD1E9;" d="M524.465,282.118c0,0,4.937,0.68,6.33-1.433
										C530.987,283.134,526.347,283.743,524.465,282.118z"/>
									<path style="fill:#BBD1E9;" d="M524.071,283.615c0,0,4.37,3.554,7.299,1.201
										C529.4,288.068,524.792,286.688,524.071,283.615z"/>
								</g>
							</g>
						</g>
					</g>
				</g>
				
					<ellipse transform="matrix(0.7071 -0.7071 0.7071 0.7071 -83.5563 456.8167)" style="fill:#3B3685;" cx="509.648" cy="329.27" rx="8.022" ry="8.022"/>
				<path style="fill:#45459B;" d="M515.292,333.558h-11.288c-2.368,0-4.289-1.92-4.289-4.289l0,0c0-2.369,1.92-4.289,4.289-4.289
					h11.288c2.369,0,4.289,1.92,4.289,4.289l0,0C519.581,331.638,517.661,333.558,515.292,333.558z"/>
				<path style="fill:#FFFFFF;" d="M630.185,382.685v19.144c0,0,7.199-1.929,7.199-9.103
					C637.384,384.841,630.185,382.685,630.185,382.685z"/>
				<path style="fill:#FFCD3B;" d="M617.113,397.743h-5.792c-2.026,0-3.668-1.642-3.668-3.668l0,0c0-2.026,1.642-3.668,3.668-3.668
					h5.792c2.026,0,3.668,1.642,3.668,3.668l0,0C620.781,396.101,619.139,397.743,617.113,397.743z"/>
				<path style="fill:#FFCD3B;" d="M183.51,396.521h-8.053c-2.287,0-4.142-1.854-4.142-4.142l0,0c0-2.287,1.854-4.141,4.142-4.141
					h8.053c2.287,0,4.141,1.854,4.141,4.141l0,0C187.651,394.667,185.797,396.521,183.51,396.521z"/>
				<path style="fill:#FFFFFF;" d="M157.768,370.751c0,0-7.851,3.681-8.311,11.964c-0.46,8.283,8.311,13.805,8.311,13.805"/>
				<path style="fill:#FFB23B;" d="M157.768,341.826c0,0-7.851,3.681-8.311,11.965c-0.46,8.283,8.311,13.805,8.311,13.805"/>
				<path style="fill:#FFFFFF;" d="M460.022,205.59h-16.64c-3.514,0-6.362-2.849-6.362-6.363l0,0c0-3.514,2.849-6.363,6.362-6.363
					h16.64c3.514,0,6.363,2.849,6.363,6.363l0,0C466.385,202.741,463.536,205.59,460.022,205.59z"/>
				<path style="fill:#53B9CD;" d="M422.958,205.59h-16.64c-3.514,0-6.363-2.849-6.363-6.363l0,0c0-3.514,2.849-6.363,6.363-6.363
					h16.64c3.514,0,6.363,2.849,6.363,6.363l0,0C429.321,202.741,426.473,205.59,422.958,205.59z"/>
				<path style="fill:#45459B;" d="M524.465,400.136h-32.963V251.734h1v147.401h31.659c1.375-2.573,12.482-21.685,38.854-21.784
					c16.026-16.036,24.403-26.143,25.446-27.416v-37.433h1v37.788l-0.111,0.137c-0.083,0.104-8.552,10.557-25.774,27.778
					l-0.147,0.146h-0.207c-27.639,0-38.203,21.286-38.306,21.501l-0.136,0.283H524.465z"/>
				<path style="fill:#FFB23B;" d="M581.006,297.535l-7.13,22.444c7.725,3.059,13.519,0.54,16.263-7.02
					C594.302,301.492,581.006,297.535,581.006,297.535z"/>
				<path style="fill:#FFCD3B;" d="M592.91,312.502c0,2.336-1.893,4.229-4.229,4.229c-2.336,0-4.229-1.893-4.229-4.229
					c0-2.336,1.893-4.229,4.229-4.229C591.017,308.273,592.91,310.166,592.91,312.502z"/>
			</g>
			<path style="fill:#3D2039;" d="M618.716,365.455h-23.74c-1.141,0-2.066-0.925-2.066-2.066l0,0c0-1.141,0.925-2.065,2.066-2.065
				h23.74c1.141,0,2.065,0.925,2.065,2.065l0,0C620.781,364.53,619.857,365.455,618.716,365.455z"/>
			<path style="fill:#3D2039;" d="M618.716,374.274h-23.74c-1.141,0-2.066-0.925-2.066-2.066l0,0c0-1.141,0.925-2.065,2.066-2.065
				h23.74c1.141,0,2.065,0.925,2.065,2.065l0,0C620.781,373.349,619.857,374.274,618.716,374.274z"/>
			<circle style="fill:#FFFFFF;" cx="179.483" cy="199.227" r="6.363"/>
			<circle style="fill:#FFCD3B;" cx="202.436" cy="199.227" r="6.363"/>
			<path style="fill:#FFFFFF;" d="M205.235,199.227c0,1.546-1.253,2.799-2.799,2.799s-2.799-1.253-2.799-2.799
				s1.253-2.799,2.799-2.799S205.235,197.682,205.235,199.227z"/>
		</g>
	</g>
</g>
</svg>
