<?xml version="1.0" encoding="utf-8"?>
<!-- Generator: Adobe Illustrator 27.5.0, SVG Export Plug-In . SVG Version: 6.00 Build 0)  -->
<svg version="1.1" xmlns="http://www.w3.org/2000/svg" xmlns:xlink="http://www.w3.org/1999/xlink" x="0px" y="0px"
	 viewBox="0 0 500 500" style="enable-background:new 0 0 500 500;" xml:space="preserve">
<g id="Background_Complete">
	<rect x="416.779" y="398.494" style="fill:#EBEBEB;" width="33.122" height="0.25"/>
	<rect x="322.527" y="401.208" style="fill:#EBEBEB;" width="8.693" height="0.25"/>
	<rect x="396.586" y="389.208" style="fill:#EBEBEB;" width="19.192" height="0.25"/>
	<rect x="52.459" y="390.888" style="fill:#EBEBEB;" width="43.193" height="0.25"/>
	<rect x="104.556" y="390.888" style="fill:#EBEBEB;" width="6.333" height="0.25"/>
	<rect x="131.471" y="395.111" style="fill:#EBEBEB;" width="93.676" height="0.25"/>
	<g>
		<path style="fill:#EBEBEB;" d="M238.401,337.8H45.302c-3.147,0-5.708-2.561-5.708-5.708V60.66c0-3.147,2.561-5.708,5.708-5.708
			h193.099c3.146,0,5.707,2.561,5.707,5.708v271.432C244.108,335.239,241.547,337.8,238.401,337.8z M45.302,55.203
			c-3.01,0-5.458,2.448-5.458,5.458v271.432c0,3.01,2.448,5.458,5.458,5.458h193.099c3.009,0,5.457-2.448,5.457-5.458V60.66
			c0-3.009-2.448-5.458-5.457-5.458H45.302z"/>
		<path style="fill:#EBEBEB;" d="M454.698,337.8H261.599c-3.146,0-5.707-2.561-5.707-5.708V60.66c0-3.147,2.561-5.708,5.707-5.708
			h193.099c3.148,0,5.708,2.561,5.708,5.708v271.432C460.406,335.239,457.845,337.8,454.698,337.8z M261.599,55.203
			c-3.009,0-5.457,2.448-5.457,5.458v271.432c0,3.01,2.448,5.458,5.457,5.458h193.099c3.01,0,5.458-2.448,5.458-5.458V60.66
			c0-3.009-2.448-5.458-5.458-5.458H261.599z"/>
	</g>
	<rect y="382.398" style="fill:#EBEBEB;" width="500" height="0.25"/>
	<g>
		<g>
			<path style="fill:#F0F0F0;" d="M404.399,149.094h-26.88c-8.529,0-15.443-6.914-15.443-15.443l0-26.88
				c0-8.528,6.914-15.442,15.443-15.442h26.88c8.529,0,15.443,6.914,15.443,15.442l0,26.88
				C419.841,142.18,412.927,149.094,404.399,149.094z"/>
			<g>
				<path style="fill:#FAFAFA;" d="M398.151,112.047c0,4.919-2.503,8.906-7.422,8.906c-4.919,0-7.422-3.987-7.422-8.906
					c0-4.919,2.503-8.906,7.422-8.906C395.648,103.141,398.151,107.129,398.151,112.047z"/>
				<path style="fill:#FAFAFA;" d="M390.729,137.281h13.73l0-8.164c0-4.509-6.147-8.164-13.73-8.164
					c-7.583,0-13.73,3.655-13.73,8.164l0,8.164H390.729z"/>
			</g>
		</g>
		<g>
			<path style="fill:#E6E6E6;" d="M151.489,151.036h-18.771c-5.956,0-10.784-4.828-10.784-10.784l0-18.772
				c0-5.956,4.828-10.784,10.784-10.784h18.771c5.956,0,10.784,4.828,10.784,10.784l0,18.772
				C162.273,146.208,157.445,151.036,151.489,151.036z"/>
			<g>
				<path style="fill:#FAFAFA;" d="M141.279,133.046c0.478-0.691,1.175-1.454,2.09-2.289c0.671-0.61,1.164-1.124,1.48-1.541
					c0.315-0.417,0.473-0.89,0.473-1.419c0-0.753-0.301-1.348-0.901-1.785c-0.6-0.437-1.399-0.656-2.395-0.656
					c-0.957,0-1.806,0.198-2.549,0.595c-0.743,0.396-1.368,0.951-1.877,1.663l-3.692-2.166c0.854-1.302,2.009-2.309,3.463-3.021
					c1.454-0.712,3.178-1.068,5.173-1.068c2.339,0,4.216,0.499,5.631,1.495c1.414,0.997,2.121,2.38,2.121,4.15
					c0,0.834-0.137,1.567-0.412,2.198c-0.275,0.63-0.61,1.165-1.007,1.602c-0.396,0.437-0.91,0.941-1.541,1.51
					c-0.753,0.672-1.302,1.236-1.648,1.694c-0.346,0.457-0.519,1.012-0.519,1.663h-4.608
					C140.562,134.613,140.801,133.738,141.279,133.046z M140.791,142.522c-0.56-0.539-0.84-1.195-0.84-1.969
					c0-0.773,0.275-1.419,0.824-1.938c0.549-0.519,1.252-0.778,2.105-0.778c0.855,0,1.557,0.259,2.106,0.778
					c0.549,0.519,0.823,1.165,0.823,1.938c0,0.773-0.28,1.43-0.839,1.969c-0.56,0.539-1.256,0.809-2.091,0.809
					S141.35,143.061,140.791,142.522z"/>
			</g>
		</g>
		<path style="fill:#EBEBEB;" d="M416.163,280.009h-14.526c-4.609,0-8.345-3.736-8.345-8.345v-14.526
			c0-4.609,3.736-8.345,8.345-8.345h14.526c4.609,0,8.345,3.736,8.345,8.345l0,14.526
			C424.508,276.273,420.772,280.009,416.163,280.009z"/>
		<g>
			<path style="fill:#FAFAFA;" d="M408.263,266.089c0.37-0.535,0.909-1.125,1.617-1.771c0.519-0.472,0.901-0.87,1.146-1.193
				c0.244-0.322,0.366-0.688,0.366-1.098c0-0.583-0.233-1.043-0.697-1.382c-0.464-0.338-1.082-0.507-1.853-0.507
				c-0.741,0-1.398,0.153-1.972,0.46c-0.574,0.307-1.059,0.736-1.452,1.287l-2.857-1.676c0.661-1.007,1.555-1.787,2.68-2.338
				c1.126-0.551,2.46-0.827,4.003-0.827c1.81,0,3.263,0.386,4.357,1.157c1.094,0.771,1.641,1.842,1.641,3.211
				c0,0.646-0.106,1.213-0.319,1.701c-0.213,0.488-0.472,0.901-0.78,1.24c-0.307,0.338-0.704,0.728-1.192,1.169
				c-0.582,0.52-1.008,0.956-1.275,1.311c-0.268,0.354-0.402,0.783-0.402,1.287h-3.565
				C407.708,267.301,407.892,266.624,408.263,266.089z M407.885,273.421c-0.433-0.417-0.65-0.925-0.65-1.524
				c0-0.598,0.213-1.098,0.638-1.499c0.425-0.402,0.969-0.602,1.629-0.602c0.661,0,1.205,0.201,1.63,0.602
				c0.425,0.402,0.637,0.901,0.637,1.499c0,0.599-0.217,1.107-0.649,1.524c-0.433,0.417-0.972,0.626-1.618,0.626
				C408.856,274.047,408.317,273.838,407.885,273.421z"/>
		</g>
		<g>
			<path style="fill:#EBEBEB;" d="M117.108,211.535H98.337c-5.956,0-10.784-4.828-10.784-10.784V181.98
				c0-5.956,4.828-10.784,10.784-10.784h18.771c5.956,0,10.784,4.828,10.784,10.784l0,18.771
				C127.892,206.707,123.064,211.535,117.108,211.535z"/>
			<path style="fill:#FAFAFA;" d="M107.722,179.963c-5.038,0-9.122,4.084-9.122,9.122c0,5.038,4.084,17.122,9.122,17.122
				s9.122-12.084,9.122-17.122C116.844,184.047,112.76,179.963,107.722,179.963z M107.722,191.835c-1.519,0-2.75-1.231-2.75-2.75
				c0-1.519,1.231-2.75,2.75-2.75s2.75,1.231,2.75,2.75C110.472,190.604,109.241,191.835,107.722,191.835z"/>
		</g>
		<path style="fill:#EBEBEB;" d="M111.745,246.443c0.144-0.912,0.22-1.846,0.22-2.798c0-0.952-0.076-1.886-0.22-2.797l-2.805-0.364
			c-0.22-1.036-0.551-2.029-0.971-2.974l2.057-1.945c-0.856-1.68-1.967-3.208-3.288-4.528l-2.496,1.361
			c-0.774-0.695-1.616-1.312-2.521-1.838l0.522-2.788c-1.643-0.84-3.431-1.436-5.32-1.732l-1.212,2.553
			c-0.515-0.053-1.037-0.081-1.566-0.081c-0.529,0-1.052,0.028-1.567,0.081l-1.212-2.553c-1.889,0.296-3.677,0.891-5.32,1.731
			l0.522,2.788c-0.905,0.525-1.747,1.142-2.521,1.837l-2.496-1.361c-1.321,1.32-2.431,2.848-3.288,4.527l2.057,1.945
			c-0.42,0.945-0.751,1.939-0.971,2.974l-2.805,0.364c-0.144,0.912-0.22,1.846-0.22,2.797c0,0.952,0.076,1.886,0.22,2.797
			l2.805,0.364c0.22,1.036,0.551,2.029,0.971,2.974l-2.057,1.945c0.856,1.68,1.967,3.208,3.288,4.527l2.496-1.361
			c0.774,0.695,1.616,1.312,2.521,1.838l-0.522,2.788c1.643,0.84,3.431,1.436,5.32,1.731l1.212-2.553
			c0.515,0.053,1.037,0.081,1.567,0.081c0.529,0,1.051-0.028,1.566-0.081l1.212,2.553c1.889-0.296,3.678-0.891,5.32-1.732
			l-0.522-2.788c0.905-0.525,1.747-1.142,2.521-1.838l2.496,1.361c1.321-1.32,2.432-2.848,3.288-4.528l-2.057-1.945
			c0.42-0.945,0.751-1.938,0.971-2.974L111.745,246.443z M94.145,249.868c-3.437,0-6.223-2.786-6.223-6.223
			c0-3.437,2.786-6.223,6.223-6.223c3.437,0,6.223,2.786,6.223,6.223C100.368,247.082,97.582,249.868,94.145,249.868z"/>
		<path style="fill:#E0E0E0;" d="M120.765,266.555c0.072-0.456,0.11-0.923,0.11-1.399c0-0.476-0.038-0.943-0.11-1.399l-1.402-0.182
			c-0.11-0.518-0.275-1.014-0.486-1.487l1.029-0.972c-0.428-0.84-0.983-1.604-1.644-2.264l-1.248,0.681
			c-0.387-0.348-0.808-0.656-1.26-0.919l0.261-1.394c-0.822-0.42-1.716-0.718-2.66-0.866l-0.606,1.277
			c-0.257-0.026-0.519-0.041-0.783-0.041c-0.265,0-0.526,0.014-0.783,0.041l-0.606-1.277c-0.944,0.148-1.839,0.446-2.66,0.866
			l0.261,1.394c-0.453,0.263-0.874,0.571-1.261,0.919l-1.248-0.681c-0.66,0.66-1.216,1.424-1.644,2.264l1.029,0.973
			c-0.21,0.473-0.375,0.969-0.486,1.487l-1.403,0.182c-0.072,0.456-0.11,0.923-0.11,1.399c0,0.476,0.038,0.943,0.11,1.399
			l1.403,0.182c0.11,0.518,0.275,1.014,0.486,1.487l-1.029,0.973c0.428,0.84,0.983,1.604,1.644,2.264l1.248-0.681
			c0.387,0.348,0.808,0.656,1.261,0.919l-0.261,1.394c0.821,0.42,1.716,0.718,2.66,0.866l0.606-1.277
			c0.258,0.027,0.519,0.041,0.783,0.041c0.264,0,0.526-0.014,0.783-0.041l0.606,1.277c0.945-0.148,1.839-0.446,2.66-0.866
			l-0.261-1.394c0.453-0.263,0.874-0.571,1.26-0.919l1.248,0.681c0.66-0.66,1.216-1.424,1.644-2.264l-1.029-0.973
			c0.21-0.473,0.375-0.969,0.486-1.487L120.765,266.555z M111.965,268.268c-1.718,0-3.111-1.393-3.111-3.111
			c0-1.718,1.393-3.111,3.111-3.111c1.718,0,3.111,1.393,3.111,3.111C115.077,266.875,113.684,268.268,111.965,268.268z"/>
		<path style="fill:#F0F0F0;" d="M429.742,246.378c0.373-0.271,0.73-0.575,1.067-0.911c0.337-0.336,0.64-0.694,0.911-1.067
			l-0.863-1.12c0.288-0.444,0.523-0.912,0.708-1.395l1.415,0.04c0.291-0.897,0.439-1.83,0.438-2.763l-1.364-0.401
			c-0.028-0.519-0.107-1.035-0.242-1.541l1.17-0.801c-0.284-0.878-0.706-1.721-1.269-2.493l-1.331,0.474
			c-0.163-0.201-0.338-0.395-0.525-0.583c-0.187-0.187-0.382-0.362-0.583-0.525l0.474-1.331c-0.772-0.563-1.615-0.985-2.493-1.269
			l-0.801,1.17c-0.506-0.134-1.022-0.214-1.541-0.242l-0.401-1.364c-0.934-0.001-1.867,0.147-2.763,0.438l0.04,1.415
			c-0.483,0.186-0.951,0.42-1.395,0.708l-1.12-0.863c-0.373,0.271-0.73,0.575-1.067,0.911c-0.337,0.337-0.64,0.694-0.911,1.067
			l0.863,1.12c-0.288,0.444-0.523,0.912-0.708,1.395l-1.415-0.04c-0.291,0.897-0.439,1.829-0.438,2.763l1.364,0.401
			c0.028,0.519,0.107,1.035,0.242,1.541l-1.17,0.801c0.284,0.878,0.706,1.721,1.269,2.493l1.331-0.474
			c0.163,0.201,0.338,0.396,0.525,0.583c0.187,0.187,0.382,0.362,0.583,0.525l-0.474,1.331c0.773,0.563,1.615,0.985,2.493,1.269
			l0.801-1.17c0.506,0.134,1.022,0.214,1.541,0.242l0.401,1.364c0.934,0,1.866-0.147,2.763-0.438l-0.04-1.415
			c0.483-0.186,0.951-0.42,1.395-0.708L429.742,246.378z M422.308,241.367c-1.215-1.215-1.215-3.185,0-4.4
			c1.215-1.215,3.185-1.215,4.4,0c1.215,1.215,1.215,3.185,0,4.4C425.493,242.582,423.523,242.582,422.308,241.367z"/>
	</g>
</g>
<g id="Background_Simple" style="display:none;">
	<g style="display:inline;">
		<path style="fill:#407BFF;" d="M78.417,159.416c22.031-57.787,89.387-83.572,129.924-60.914
			c45.635,25.507,45.614,62.847,67.666,71.399c18.595,7.212,33.551-20.403,76.175-22.376c30.78-1.424,92.901,31.08,81.976,101.903
			c-12.641,81.942-89.387,111.495-145.929,117.346c-67.483,6.982-130.357-9.85-171.698-45.77
			C78.176,287.678,54.941,220.99,78.417,159.416z"/>
		<path style="opacity:0.9;fill:#FFFFFF;" d="M78.417,159.416c22.031-57.787,89.387-83.572,129.924-60.914
			c45.635,25.507,45.614,62.847,67.666,71.399c18.595,7.212,33.551-20.403,76.175-22.376c30.78-1.424,92.901,31.08,81.976,101.903
			c-12.641,81.942-89.387,111.495-145.929,117.346c-67.483,6.982-130.357-9.85-171.698-45.77
			C78.176,287.678,54.941,220.99,78.417,159.416z"/>
	</g>
</g>
<g id="Shadow">
	<ellipse id="_x3C_Path_x3E__1_" style="fill:#F5F5F5;" cx="250" cy="412.391" rx="193.889" ry="11.323"/>
</g>
<g id="Graphic">
	<g>
		<g>
			<g>
				<polygon style="fill:#263238;" points="285.555,113.759 285.555,98.176 293.219,97.099 293.219,112.682 				"/>
				<polygon style="fill:#263238;" points="260.087,122.435 254.35,113.304 259.236,109.796 264.974,118.927 				"/>
				<polygon style="fill:#263238;" points="313.8,112.065 319.537,101.321 324.424,103.455 318.687,114.199 				"/>
			</g>
			<g style="opacity:0.5;">
				<polygon style="fill:#FFFFFF;" points="285.555,113.759 285.555,98.176 293.219,97.099 293.219,112.682 				"/>
				<polygon style="fill:#FFFFFF;" points="260.087,122.435 254.35,113.304 259.236,109.796 264.974,118.927 				"/>
				<polygon style="fill:#FFFFFF;" points="313.8,112.065 319.537,101.321 324.424,103.455 318.687,114.199 				"/>
			</g>
			<path style="fill:#263238;" d="M294.307,99.609l-9.84,1.383c-1.586,0.223-2.872-0.882-2.872-2.468l0,0
				c0-1.586,1.286-3.052,2.872-3.275l9.84-1.383c1.586-0.223,2.872,0.882,2.872,2.468l0,0
				C297.178,97.92,295.893,99.386,294.307,99.609z"/>
			<path style="fill:#263238;" d="M260.832,109.554l-7.295,5.237c-0.73,0.524-1.663,0.405-2.084-0.265l0,0
				c-0.421-0.67-0.171-1.639,0.558-2.162l7.295-5.237c0.73-0.524,1.662-0.405,2.084,0.266l0,0
				C261.812,108.062,261.562,109.03,260.832,109.554z"/>
			<path style="fill:#263238;" d="M325.237,104.714l-7.295-3.187c-0.73-0.319-0.98-1.216-0.558-2.005l0,0
				c0.421-0.789,1.354-1.17,2.084-0.851l7.295,3.187c0.73,0.319,0.979,1.216,0.558,2.005l0,0
				C326.9,104.652,325.967,105.033,325.237,104.714z"/>
			<path style="opacity:0.7;fill:#FFFFFF;" d="M294.307,99.609l-9.84,1.383c-1.586,0.223-2.872-0.882-2.872-2.468l0,0
				c0-1.586,1.286-3.052,2.872-3.275l9.84-1.383c1.586-0.223,2.872,0.882,2.872,2.468l0,0
				C297.178,97.92,295.893,99.386,294.307,99.609z"/>
			<path style="opacity:0.7;fill:#FFFFFF;" d="M260.832,109.554l-7.295,5.237c-0.73,0.524-1.663,0.405-2.084-0.265l0,0
				c-0.421-0.67-0.171-1.639,0.558-2.162l7.295-5.237c0.73-0.524,1.662-0.405,2.084,0.266l0,0
				C261.812,108.062,261.562,109.03,260.832,109.554z"/>
			<path style="opacity:0.7;fill:#FFFFFF;" d="M325.237,104.714l-7.295-3.187c-0.73-0.319-0.98-1.216-0.558-2.005l0,0
				c0.421-0.789,1.354-1.17,2.084-0.851l7.295,3.187c0.73,0.319,0.979,1.216,0.558,2.005l0,0
				C326.9,104.652,325.967,105.033,325.237,104.714z"/>
		</g>
		<path style="fill:#407BFF;" d="M289.387,211.302c-26.632,3.743-48.221-14.812-48.221-41.444c0-26.632,21.589-51.255,48.221-54.998
			c26.632-3.743,48.221,14.812,48.221,41.444l6.579-0.925c0-30.265-24.535-51.352-54.8-47.098
			c-30.265,4.253-54.8,32.236-54.8,62.502s24.535,51.352,54.8,47.098V211.302z"/>
		<g>
			<g>
				<g>
					
						<rect x="265.324" y="200.186" transform="matrix(0.471 -0.8821 0.8821 0.471 -34.926 343.7277)" style="fill:#263238;" width="7.642" height="1.6"/>
				</g>
				<g>
					
						<rect x="305.807" y="124.376" transform="matrix(0.471 -0.8821 0.8821 0.471 53.3601 339.3389)" style="fill:#263238;" width="7.642" height="1.6"/>
				</g>
			</g>
			<g>
				
					<rect x="253.527" y="144.365" transform="matrix(0.4003 -0.9164 0.9164 0.4003 17.1157 321.6864)" style="fill:#263238;" width="1.6" height="6.804"/>
			</g>
			<g>
				
					<rect x="268.345" y="127.483" transform="matrix(0.8467 -0.532 0.532 0.8467 -28.3715 163.254)" style="fill:#263238;" width="1.6" height="6.766"/>
			</g>
			<g>
				<g>
					
						<rect x="250.489" y="187.45" transform="matrix(0.8125 -0.583 0.583 0.8125 -62.0567 183.5858)" style="fill:#263238;" width="7.676" height="1.6"/>
				</g>
				<g>
					
						<rect x="320.609" y="137.112" transform="matrix(0.8125 -0.583 0.583 0.8125 -19.5612 215.0092)" style="fill:#263238;" width="7.676" height="1.6"/>
				</g>
			</g>
			<g>
				
					<rect x="245.256" y="167.002" transform="matrix(0.9903 -0.1392 0.1392 0.9903 -21.0331 36.453)" style="fill:#263238;" width="9.694" height="3.2"/>
			</g>
			<g>
				<rect x="287.787" y="118.998" style="fill:#263238;" width="3.2" height="9.6"/>
			</g>
			<g>
				<rect x="287.787" y="197.565" style="fill:#263238;" width="3.2" height="9.6"/>
			</g>
		</g>
		<g>
			<path style="fill:#407BFF;" d="M276.953,152.677L276.953,152.677c-0.778,0.888-0.778,2.15,0,2.819l10.732,9.224l2.819-3.215
				l-10.732-9.224C278.994,151.612,277.732,151.79,276.953,152.677z"/>
			<path style="opacity:0.4;fill:#FFFFFF;" d="M276.953,152.677L276.953,152.677c-0.778,0.888-0.778,2.15,0,2.819l10.732,9.224
				l2.819-3.215l-10.732-9.224C278.994,151.612,277.732,151.79,276.953,152.677z"/>
		</g>
		<polygon style="fill:#407BFF;" points="348.876,153.921 340.87,164.651 332.865,156.171 		"/>
		<g>
			<path style="fill:#263238;" d="M310.29,202.26l12.497-1.756l-1.105,5.767l-22.529,3.166l0.893-4.589l13.56-12.533
				c1.643-1.563,2.784-2.842,3.422-3.839c0.638-0.997,0.957-1.991,0.957-2.982c0-0.992-0.376-1.732-1.126-2.222
				c-0.752-0.489-1.835-0.634-3.252-0.435c-1.19,0.167-2.338,0.598-3.443,1.292c-1.105,0.694-2.069,1.595-2.89,2.701l-4.634-2.707
				c1.218-1.842,2.89-3.403,5.017-4.679c2.125-1.276,4.448-2.092,6.971-2.446c2.068-0.291,3.889-0.206,5.462,0.252
				c1.572,0.46,2.79,1.238,3.655,2.334c0.865,1.098,1.297,2.411,1.297,3.942c0,1.842-0.51,3.642-1.531,5.4
				c-1.02,1.759-2.791,3.793-5.313,6.103L310.29,202.26z"/>
			<path style="fill:#263238;" d="M352.585,195.679l-4.888,0.687l-1.233,6.422l-6.716,0.944l1.275-6.428l-16.025,2.252l0.893-4.759
				l17.513-21.334l7.523-1.057l-16.323,20.19l7.821-1.099l1.105-5.724l6.419-0.902l-1.105,5.724l4.888-0.687L352.585,195.679z"/>
			<path style="fill:#263238;" d="M372.222,163.376l6.206-0.872l-21.848,43.112l-6.163,0.866L372.222,163.376z"/>
			<path style="fill:#263238;" d="M400.574,165.428l-0.893,4.589l-15.898,27.526l-7.652,1.075l15.261-26.289l-9.65,1.356
				l-0.977,4.983l-6.121,0.86l2.083-10.75L400.574,165.428z"/>
			<path style="fill:#263238;" d="M302.575,239.043c-1.125-0.167-2.026-0.454-2.706-0.861l1.464-2.978
				c0.71,0.418,1.509,0.705,2.396,0.861c0.887,0.157,1.796,0.169,2.727,0.038c0.991-0.139,1.775-0.412,2.352-0.819
				c0.576-0.406,0.865-0.889,0.865-1.452c0-0.459-0.229-0.777-0.688-0.957c-0.458-0.179-1.19-0.339-2.196-0.478
				c-1.005-0.155-1.826-0.324-2.462-0.508c-0.635-0.184-1.187-0.517-1.652-0.999c-0.466-0.481-0.698-1.173-0.698-2.076
				c0-1.049,0.291-2.015,0.876-2.895c0.584-0.88,1.411-1.61,2.483-2.189c1.072-0.579,2.318-0.969,3.737-1.169
				c1.05-0.148,2.04-0.172,2.973-0.074c0.931,0.098,1.73,0.314,2.395,0.65l-1.353,2.941c-0.577-0.318-1.227-0.526-1.952-0.624
				c-0.725-0.098-1.479-0.092-2.262,0.018c-1.02,0.143-1.826,0.433-2.418,0.872c-0.591,0.438-0.887,0.938-0.887,1.499
				c0,0.34,0.125,0.608,0.377,0.801c0.252,0.195,0.569,0.334,0.954,0.421c0.384,0.087,0.924,0.177,1.619,0.271
				c0.991,0.127,1.804,0.283,2.439,0.467c0.636,0.184,1.179,0.507,1.631,0.968c0.45,0.462,0.676,1.121,0.676,1.979
				c0,1.064-0.296,2.034-0.887,2.908c-0.591,0.874-1.427,1.606-2.506,2.193c-1.079,0.587-2.336,0.983-3.77,1.184
				C304.873,239.208,303.698,239.21,302.575,239.043z"/>
			<path style="fill:#263238;" d="M320.937,224.044l-0.665,3.464l7.208-1.013l-0.554,2.873l-7.23,1.016l-0.71,3.692l8.472-1.191
				l-0.598,2.967l-12.02,1.689l3.104-15.96l11.732-1.649l-0.599,2.967L320.937,224.044z"/>
			<path style="fill:#263238;" d="M344.046,226.451c-0.784,1.145-1.871,2.03-3.26,2.654l2.705,4.41l-3.792,0.533l-2.439-4.004
				l-3.061,0.43l-0.865,4.468l-3.615,0.508l3.104-15.96l6.321-0.888c1.921-0.27,3.415-0.059,4.48,0.635
				c1.065,0.693,1.596,1.801,1.596,3.324C345.221,224.009,344.829,225.306,344.046,226.451z M340.597,225.893
				c0.658-0.638,0.987-1.469,0.987-2.49c0-0.739-0.252-1.258-0.754-1.557c-0.503-0.298-1.219-0.383-2.151-0.252l-2.838,0.399
				l-1.087,5.542l3.061-0.43C339.011,226.937,339.939,226.533,340.597,225.893z"/>
			<path style="fill:#263238;" d="M364.05,215.101l-9.825,16.905l-3.527,0.496l-3.615-15.016l3.704-0.521l2.506,10.714l7.03-12.054
				L364.05,215.101z"/>
			<path style="fill:#263238;" d="M365.335,214.921l3.615-0.508l-3.104,15.96l-3.615,0.508L365.335,214.921z"/>
			<path style="fill:#263238;" d="M373.596,228.707c-1.16-0.398-2.051-1.064-2.672-1.998c-0.622-0.932-0.932-2.065-0.932-3.395
				c0-1.76,0.403-3.402,1.209-4.928c0.806-1.525,1.94-2.797,3.404-3.816c1.464-1.019,3.142-1.662,5.035-1.928
				c1.39-0.195,2.617-0.131,3.682,0.192c1.064,0.324,1.87,0.891,2.417,1.701l-2.594,2.494c-0.828-1.096-2.077-1.527-3.748-1.293
				c-1.139,0.16-2.144,0.568-3.017,1.223c-0.873,0.655-1.548,1.475-2.029,2.459c-0.481,0.984-0.721,2.038-0.721,3.161
				c0,1.197,0.38,2.094,1.142,2.689c0.761,0.595,1.829,0.796,3.205,0.603c1.641-0.231,3.016-1.022,4.125-2.376l2.129,1.874
				c-1.538,2.006-3.726,3.207-6.564,3.606C376.113,229.196,374.757,229.106,373.596,228.707z"/>
			<path style="fill:#263238;" d="M391.859,214.076l-0.665,3.464l7.208-1.013l-0.554,2.873l-7.23,1.016l-0.71,3.692l8.472-1.191
				l-0.598,2.967l-12.02,1.689l3.104-15.96l11.732-1.649l-0.599,2.967L391.859,214.076z"/>
		</g>
		<path style="fill:#407BFF;" d="M307.658,141.941L307.658,141.941c-0.778-0.669-2.04-0.492-2.819,0.396l-14.543,16.587
			c-1.435-0.225-3.048,0.335-4.182,1.628c-1.646,1.877-1.646,4.546,0,5.96c1.646,1.415,4.315,1.04,5.961-0.838
			c1.133-1.292,1.467-2.953,1.04-4.328l14.543-16.587C308.436,143.872,308.436,142.609,307.658,141.941z"/>
	</g>
</g>
<g id="Speech_bubble">
	<g>
		<path style="fill:#407BFF;" d="M196.471,144.471c-10.688,0-19.352,6.306-19.352,14.086c0,5.656,4.591,10.52,11.199,12.761
			c-0.712,3.298-1.942,6.403-3.609,9.22c4.956-0.727,9.164-3.727,11.549-7.904c0.072,0.001,0.142,0.008,0.214,0.008
			c10.688,0,19.352-6.306,19.352-14.086C215.823,150.777,207.158,144.471,196.471,144.471z"/>
		<path style="opacity:0.7;fill:#FFFFFF;" d="M196.471,144.471c-10.688,0-19.352,6.306-19.352,14.086
			c0,5.656,4.591,10.52,11.199,12.761c-0.712,3.298-1.942,6.403-3.609,9.22c4.956-0.727,9.164-3.727,11.549-7.904
			c0.072,0.001,0.142,0.008,0.214,0.008c10.688,0,19.352-6.306,19.352-14.086C215.823,150.777,207.158,144.471,196.471,144.471z"/>
		<g>
			<circle style="fill:#263238;" cx="187.935" cy="159.301" r="1.972"/>
			<path style="fill:#263238;" d="M198.309,159.301c0,1.089-0.883,1.972-1.972,1.972c-1.089,0-1.972-0.883-1.972-1.972
				c0-1.089,0.883-1.972,1.972-1.972C197.426,157.329,198.309,158.212,198.309,159.301z"/>
			<circle style="fill:#263238;" cx="204.739" cy="159.301" r="1.972"/>
		</g>
	</g>
</g>
<g id="Chair">
	<g>
		<g>
			<g>
				<rect x="161.3" y="317.629" style="fill:#263238;" width="6.565" height="43.175"/>
				<rect x="161.3" y="317.629" style="opacity:0.5;fill:#FFFFFF;" width="6.565" height="43.175"/>
			</g>
			<path style="fill:#263238;" d="M184.545,393.145l-15.384-2.778v-30.895c0-0.957-0.776-1.733-1.733-1.733h-5.691
				c-0.957,0-1.733,0.776-1.733,1.733v30.895l-15.384,2.778c-2.23,0.403-3.851,2.343-3.851,4.609l23.814-2.15l23.814,2.15
				C188.396,395.489,186.775,393.548,184.545,393.145z"/>
			<g>
				<path style="fill:#407BFF;" d="M145.771,402.418c0,2.763-2.24,5.003-5.003,5.003c-2.763,0-5.003-2.24-5.003-5.003
					c0-2.763,2.24-5.003,5.003-5.003C143.532,397.415,145.771,399.655,145.771,402.418z"/>
				<path style="fill:#407BFF;" d="M193.399,402.418c0,2.763-2.24,5.003-5.003,5.003s-5.003-2.24-5.003-5.003
					c0-2.763,2.24-5.003,5.003-5.003S193.399,399.655,193.399,402.418z"/>
			</g>
			<path style="fill:#407BFF;" d="M168.485,402.418c0,2.763-1.14,5.003-3.903,5.003c-2.763,0-3.902-2.24-3.902-5.003
				c0-2.763,1.14-5.003,3.902-5.003C167.346,397.415,168.485,399.655,168.485,402.418z"/>
			<g style="opacity:0.5;">
				<polygon points="169.315,390.395 169.315,396.031 171.172,396.199 171.172,390.73 				"/>
				<polygon points="158.04,390.722 158.04,396.195 159.897,396.027 159.897,390.386 				"/>
			</g>
		</g>
		<g>
			<path style="fill:#263238;" d="M121.687,278.304c-1.764,0-3.096,1.601-2.774,3.336l6.095,32.869
				c0.572,3.083,3.261,5.32,6.397,5.32h29.875h36.373h29.875c2.384,0,4.316-1.933,4.316-4.316c0-3.387-2.746-6.134-6.134-6.134
				h-29.875h-24.976c-2.99,0-5.596-2.039-6.315-4.941l-4.911-19.818c-0.919-3.71-4.25-6.316-8.072-6.316H121.687z"/>
			<path style="fill:#263238;" d="M134.67,304.438l-4.911-19.818c-0.919-3.71-4.25-6.316-8.072-6.316l0,0
				c-1.764,0-3.096,1.601-2.774,3.336l6.095,32.869c0.572,3.083,3.261,5.32,6.397,5.32h66.248c2.384,0,4.316-1.932,4.316-4.316l0,0
				c0-3.387-2.746-6.134-6.134-6.134h-54.851C137.994,309.379,135.389,307.341,134.67,304.438z"/>
			<path style="opacity:0.2;fill:#FFFFFF;" d="M134.67,304.438l-4.911-19.818c-0.919-3.71-4.25-6.316-8.072-6.316l0,0
				c-1.764,0-3.096,1.601-2.774,3.336l6.095,32.869c0.572,3.083,3.261,5.32,6.397,5.32h66.248c2.384,0,4.316-1.932,4.316-4.316l0,0
				c0-3.387-2.746-6.134-6.134-6.134h-54.851C137.994,309.379,135.389,307.341,134.67,304.438z"/>
		</g>
	</g>
</g>
<g id="Plant">
	<g>
		<g>
			<path style="fill:#407BFF;" d="M371.978,360.053c0,0,0.128-13.358-4.725-11.597C362.401,350.218,371.978,360.053,371.978,360.053
				z"/>
			<path style="fill:#407BFF;" d="M377.223,347.691c0,0,6.434-10.684,0.62-12.211C372.029,333.953,377.223,347.691,377.223,347.691z
				"/>
			<path style="fill:#407BFF;" d="M402.673,340.148c0,0,13.366-0.69,10.344-5.698C409.995,329.443,402.673,340.148,402.673,340.148z
				"/>
			<path style="fill:#407BFF;" d="M381.518,343.7c0,0,14.023-3.155,11.38,4.701C390.255,356.257,381.518,343.7,381.518,343.7z"/>
			<g>
				<path style="fill:#407BFF;" d="M371.353,372.12c0,0-5.406-12.106-8.398-7.806C359.962,368.615,371.353,372.12,371.353,372.12z"
					/>
				<path style="fill:#407BFF;" d="M386.606,341.176c0,0,14.264-3.74,9.819-9.004C391.981,326.907,386.606,341.176,386.606,341.176z
					"/>
				<path style="fill:#407BFF;" d="M397.394,339.714c0,0,11.276,5.539,6.074,9.152C398.267,352.48,397.394,339.714,397.394,339.714z
					"/>
				<path style="fill:#407BFF;" d="M373.406,354.678c0,0,7.811-9.4,10.224-2.567C386.042,358.944,373.406,354.678,373.406,354.678z"
					/>
			</g>
			<g style="opacity:0.4;">
				<path style="fill:#FFFFFF;" d="M371.353,372.12c0,0-5.406-12.106-8.398-7.806C359.962,368.615,371.353,372.12,371.353,372.12z"
					/>
				<path style="fill:#FFFFFF;" d="M386.606,341.176c0,0,14.264-3.74,9.819-9.004C391.981,326.907,386.606,341.176,386.606,341.176z
					"/>
				<path style="fill:#FFFFFF;" d="M397.394,339.714c0,0,11.276,5.539,6.074,9.152C398.267,352.48,397.394,339.714,397.394,339.714z
					"/>
				<path style="fill:#FFFFFF;" d="M373.406,354.678c0,0,7.811-9.4,10.224-2.567C386.042,358.944,373.406,354.678,373.406,354.678z"
					/>
			</g>
			<path style="fill:#407BFF;" d="M371.275,366.885c0,0,5.598-12.019,10.107-5.956C385.891,366.991,371.275,366.885,371.275,366.885
				z"/>
			<g>
				<path style="fill:#407BFF;" d="M371.362,379.496c-1.597-7.607-1.561-16.195,0.712-23.634
					c4.579-14.985,18.621-18.537,32.83-16.267c1.126,0.18,0.622,1.886-0.496,1.707c-7.535-1.204-16.04-1.32-22.564,3.241
					c-4.7,3.286-7.364,8.518-8.645,13.988c-1.538,6.566-1.501,13.92-0.113,20.532C373.321,380.18,371.598,380.618,371.362,379.496
					L371.362,379.496z"/>
			</g>
			<g style="opacity:0.3;">
				<path d="M371.362,379.496c-1.597-7.607-1.561-16.195,0.712-23.634c4.579-14.985,18.621-18.537,32.83-16.267
					c1.126,0.18,0.622,1.886-0.496,1.707c-7.535-1.204-16.04-1.32-22.564,3.241c-4.7,3.286-7.364,8.518-8.645,13.988
					c-1.538,6.566-1.501,13.92-0.113,20.532C373.321,380.18,371.598,380.618,371.362,379.496L371.362,379.496z"/>
			</g>
		</g>
		<g>
			<path style="fill:#407BFF;" d="M360.228,355.981c0,0-6.951-16.318-11.543-12.057
				C344.094,348.185,360.228,355.981,360.228,355.981z"/>
			<path style="fill:#407BFF;" d="M359.634,338.643c0,0,1.652-15.813-5.781-15.136C346.419,324.185,359.634,338.643,359.634,338.643
				z"/>
			<path style="fill:#407BFF;" d="M384.617,318.36c0,0,14.858-6.67,8.755-11.448C387.269,302.134,384.617,318.36,384.617,318.36z"/>
			<path style="fill:#407BFF;" d="M362.406,331.911c0,0,14.297-9.958,15.46,0.759C379.029,343.387,362.406,331.911,362.406,331.911z
				"/>
			<g>
				<path style="fill:#407BFF;" d="M365.926,370.944c0,0-12.589-12.38-13.713-5.839
					C351.088,371.645,365.926,370.944,365.926,370.944z"/>
				<path style="fill:#407BFF;" d="M366.861,326.619c0,0,14.261-10.775,6.401-15.245
					C365.403,306.904,366.861,326.619,366.861,326.619z"/>
				<path style="fill:#407BFF;" d="M378.372,320.133c0,0,15.786,1.824,11.781,8.493
					C386.148,335.294,378.372,320.133,378.372,320.133z"/>
				<path style="fill:#407BFF;" d="M358.998,348.814c0,0,3.904-14.851,10.282-7.585
					C375.658,348.495,358.998,348.814,358.998,348.814z"/>
			</g>
			<g style="opacity:0.4;">
				<path style="fill:#FFFFFF;" d="M365.926,370.944c0,0-12.589-12.38-13.713-5.839
					C351.088,371.645,365.926,370.944,365.926,370.944z"/>
				<path style="fill:#FFFFFF;" d="M366.861,326.619c0,0,14.261-10.775,6.401-15.245
					C365.403,306.904,366.861,326.619,366.861,326.619z"/>
				<path style="fill:#FFFFFF;" d="M378.372,320.133c0,0,15.786,1.824,11.781,8.493
					C386.148,335.294,378.372,320.133,378.372,320.133z"/>
				<path style="fill:#FFFFFF;" d="M358.998,348.814c0,0,3.904-14.851,10.282-7.585
					C375.658,348.495,358.998,348.814,358.998,348.814z"/>
			</g>
			<path style="fill:#407BFF;" d="M363.055,364.604c0,0-0.008-17.074,8.349-11.66C379.761,358.358,363.055,364.604,363.055,364.604z
				"/>
			<g>
				<path style="fill:#407BFF;" d="M369.855,379.919c-5.86-8.565-10.382-19.034-11.744-29.082
					c-2.745-20.24,11.363-30.689,28.753-34.123c1.379-0.272,1.71,2.025,0.342,2.295c-9.222,1.821-18.972,5.39-23.98,13.787
					c-3.608,6.051-3.863,13.582-2.416,20.8c1.737,8.665,5.685,17.601,10.779,25.044
					C372.449,379.897,370.719,381.183,369.855,379.919L369.855,379.919z"/>
			</g>
			<g style="opacity:0.3;">
				<path d="M369.855,379.919c-5.86-8.565-10.382-19.034-11.744-29.082c-2.745-20.24,11.363-30.689,28.753-34.123
					c1.379-0.272,1.71,2.025,0.342,2.295c-9.222,1.821-18.972,5.39-23.98,13.787c-3.608,6.051-3.863,13.582-2.416,20.8
					c1.737,8.665,5.685,17.601,10.779,25.044C372.449,379.897,370.719,381.183,369.855,379.919L369.855,379.919z"/>
			</g>
		</g>
		<g>
			<path style="fill:#407BFF;" d="M358.566,360.289c0,0,3.329-11.071,6.885-8.368C369.008,354.624,358.566,360.289,358.566,360.289z
				"/>
			<path style="fill:#407BFF;" d="M357.411,348.725c0,0-2.569-10.482,2.627-10.249C365.234,338.709,357.411,348.725,357.411,348.725
				z"/>
			<path style="fill:#407BFF;" d="M338.32,335.95c0,0-10.867-4.006-7.082-7.367C335.023,325.222,338.32,335.95,338.32,335.95z"/>
			<path style="fill:#407BFF;" d="M354.888,344.323c0,0-10.776-6.212-10.612,0.958C344.44,352.453,354.888,344.323,354.888,344.323z
				"/>
			<g>
				<path style="fill:#407BFF;" d="M355.981,370.42c0,0,7.579-8.614,8.946-4.291S355.981,370.42,355.981,370.42z"/>
				<path style="fill:#407BFF;" d="M351.333,340.93c0,0-10.825-6.757-5.799-9.965C350.56,327.757,351.333,340.93,351.333,340.93z"/>
				<path style="fill:#407BFF;" d="M342.794,336.948c0,0-10.741,1.677-7.372,6.001C338.791,347.272,342.794,336.948,342.794,336.948
					z"/>
				<path style="fill:#407BFF;" d="M358.769,355.48c0,0-4.038-9.776-7.788-4.75C347.23,355.756,358.769,355.48,358.769,355.48z"/>
			</g>
			<g style="opacity:0.4;">
				<path style="fill:#FFFFFF;" d="M355.981,370.42c0,0,7.579-8.614,8.946-4.291S355.981,370.42,355.981,370.42z"/>
				<path style="fill:#FFFFFF;" d="M351.333,340.93c0,0-10.825-6.757-5.799-9.965C350.56,327.757,351.333,340.93,351.333,340.93z"/>
				<path style="fill:#FFFFFF;" d="M342.794,336.948c0,0-10.741,1.677-7.372,6.001C338.791,347.272,342.794,336.948,342.794,336.948
					z"/>
				<path style="fill:#FFFFFF;" d="M358.769,355.48c0,0-4.038-9.776-7.788-4.75C347.23,355.756,358.769,355.48,358.769,355.48z"/>
			</g>
			<path style="fill:#407BFF;" d="M357.392,366.114c0,0-1.536-11.371-6.82-7.52C345.286,362.445,357.392,366.114,357.392,366.114z"
				/>
			<g>
				<path style="fill:#407BFF;" d="M354.077,376.513c3.275-5.875,5.453-12.98,5.487-19.711
					c0.069-13.559-10.621-20.105-22.945-21.882c-0.977-0.141-0.999,1.398-0.029,1.538c6.536,0.942,13.593,3.033,17.811,8.478
					c3.039,3.923,3.895,8.932,3.547,13.781c-0.418,5.821-2.338,11.888-5.185,16.994
					C352.283,376.574,353.594,377.379,354.077,376.513L354.077,376.513z"/>
			</g>
			<g style="opacity:0.3;">
				<path d="M354.077,376.513c3.275-5.875,5.453-12.98,5.487-19.711c0.069-13.559-10.621-20.105-22.945-21.882
					c-0.977-0.141-0.999,1.398-0.029,1.538c6.536,0.942,13.593,3.033,17.811,8.478c3.039,3.923,3.895,8.932,3.547,13.781
					c-0.418,5.821-2.338,11.888-5.185,16.994C352.283,376.574,353.594,377.379,354.077,376.513L354.077,376.513z"/>
			</g>
		</g>
		<path style="fill:#407BFF;" d="M385.197,373.701l-3.869,29.185c-0.498,3.755-3.7,6.561-7.488,6.561h-24.07
			c-3.788,0-6.99-2.806-7.488-6.561l-3.869-29.185H385.197z"/>
		<path style="opacity:0.3;fill:#FFFFFF;" d="M385.197,373.701l-3.869,29.185c-0.498,3.755-3.7,6.561-7.488,6.561h-24.07
			c-3.788,0-6.99-2.806-7.488-6.561l-3.869-29.185H385.197z"/>
	</g>
</g>
<g id="Character">
	<g>
		<path style="fill:#263238;" d="M175.28,184.246c0,0,10.942,3.266,5.83,11.35l-4.754-6.919L175.28,184.246z"/>
		<polygon style="fill:#DBB178;" points="214.695,225.951 219.464,218.949 224.182,220.451 225.043,222.35 219.163,230.764 		"/>
		<path style="fill:#407BFF;" d="M221.762,227.777c-4.787,7.508-12.32,18.443-15.203,17.797c-8.459-1.892-20.086-9.9-26.059-18.7
			c-1.873-2.75-1.323-6.478,1.265-8.569l-0.022-0.066c2.738-2.227,6.763-1.813,8.991,0.925c0.107,0.131,0.208,0.267,0.304,0.406
			c5.291,7.59,12.034,14.795,13.101,15.4c1.288,0.745,4.64-2.428,11.729-11.388L221.762,227.777z"/>
		<path style="opacity:0.6;fill:#FFFFFF;" d="M221.762,227.777c-4.787,7.508-12.32,18.443-15.203,17.797
			c-8.459-1.892-20.086-9.9-26.059-18.7c-1.873-2.75-1.323-6.478,1.265-8.569l-0.022-0.066c2.738-2.227,6.763-1.813,8.991,0.925
			c0.107,0.131,0.208,0.267,0.304,0.406c5.291,7.59,12.034,14.795,13.101,15.4c1.288,0.745,4.64-2.428,11.729-11.388
			L221.762,227.777z"/>
		<path style="fill:#DBB178;" d="M221.874,221.729l9.449,1.853l-4.398-7.924c0,0-5.723,0.02-7.461,3.292L221.874,221.729z"/>
		<path style="opacity:0.2;" d="M194.498,240.1c-6.848-4.675-7.754-15.659-7.754-15.659l-3.881-1.769l-1.83,4.94
			C184.418,232.325,189.356,236.765,194.498,240.1z"/>
		<polygon style="fill:#DBB178;" points="238.002,220.186 233.961,213.751 226.925,215.657 231.323,223.582 		"/>
		<path style="fill:#407BFF;" d="M185.518,264.143l-33.517,2.2c0,0-0.242-8.987-1.408-17.292c-0.364-2.884-0.941-5.737-1.727-8.536
			c-0.869-2.86-1.958-6.072-3.3-9.801c-0.165-0.462-0.341-0.924-0.528-1.408c-0.44-1.155-0.891-2.365-1.397-3.63v-0.055
			c-0.967-2.564,0.328-5.426,2.892-6.392c0.23-0.087,0.465-0.156,0.705-0.208c2.134-0.451,4.279-0.858,6.457-1.199l1.881-0.286
			c5.022-0.749,10.083-1.2,15.158-1.353c2.629,0,5.434,0.077,7.832,0.187l1.991,0.099c2.541,0.154,4.301,0.308,4.301,0.308
			s1.1,0.22,1.749,6.116c0,0.286,0.066,0.616,0.099,0.957c0.088,1.221,0.154,2.761,0.187,4.609
			C186.959,236.06,186.552,248.754,185.518,264.143z"/>
		<path style="opacity:0.6;fill:#FFFFFF;" d="M185.518,264.143l-33.517,2.2c0,0-0.242-8.987-1.408-17.292
			c-0.364-2.884-0.941-5.737-1.727-8.536c-0.869-2.86-1.958-6.072-3.3-9.801c-0.165-0.462-0.341-0.924-0.528-1.408
			c-0.44-1.155-0.891-2.365-1.397-3.63v-0.055c-0.967-2.564,0.328-5.426,2.892-6.392c0.23-0.087,0.465-0.156,0.705-0.208
			c2.134-0.451,4.279-0.858,6.457-1.199l1.881-0.286c5.022-0.749,10.083-1.2,15.158-1.353c2.629,0,5.434,0.077,7.832,0.187
			l1.991,0.099c2.541,0.154,4.301,0.308,4.301,0.308s1.1,0.22,1.749,6.116c0,0.286,0.066,0.616,0.099,0.957
			c0.088,1.221,0.154,2.761,0.187,4.609C186.959,236.06,186.552,248.754,185.518,264.143z"/>
		<path style="fill:#407BFF;" d="M156.747,217.379l8.364,11.139l5.974-5.133l7.792,3.758l-4.215-10.909
			c-1.306-0.032-2.637-0.051-3.927-0.051C166.053,216.324,161.384,216.731,156.747,217.379z"/>
		<path style="opacity:0.9;fill:#FFFFFF;" d="M156.747,217.379l8.364,11.139l5.974-5.133l7.792,3.758l-4.215-10.909
			c-1.306-0.032-2.637-0.051-3.927-0.051C166.053,216.324,161.384,216.731,156.747,217.379z"/>
		<polygon style="fill:#DBB178;" points="230.739,398.574 223.609,398.574 226.863,344.751 240.201,344.751 		"/>
		<path style="fill:#263238;" d="M222.819,397.892c-0.077-0.682,8.426-1.32,8.426-1.32s5.929,4.554,11.121,5.038
			c5.192,0.484,2.816,3.894-2.816,4.675l-13.926,1.947C221.62,408.826,223.644,405.031,222.819,397.892z"/>
		<path style="fill:#407BFF;" d="M235.524,398.178c-1.085-0.063-2.157-0.266-3.19-0.605c-0.042-0.011-0.08-0.034-0.11-0.066l0,0l0,0
			c-0.026-0.067-0.026-0.142,0-0.209c0-0.088,0.462-2.2,1.551-2.816c0.331-0.2,0.732-0.249,1.1-0.132
			c0.539,0.165,0.671,0.462,0.682,0.671c0,0.429-0.407,0.913-0.979,1.353c0.568-0.16,1.17-0.16,1.738,0
			c0.251,0.092,0.454,0.283,0.561,0.528c0.167,0.315,0.132,0.699-0.088,0.979C236.424,398.145,235.969,398.252,235.524,398.178z
			 M233.225,397.276c1.287,0.33,2.783,0.55,3.113,0.198c0.077-0.077,0.066-0.22,0-0.407c-0.05-0.114-0.146-0.202-0.264-0.242
			C235.101,396.706,234.114,396.862,233.225,397.276z M234.391,394.779c-0.148,0.003-0.292,0.044-0.418,0.121
			c-0.573,0.494-0.977,1.156-1.155,1.892c1.1-0.627,2.2-1.419,2.2-1.76c0-0.066-0.121-0.143-0.308-0.209
			C234.606,394.794,234.499,394.779,234.391,394.779z"/>
		<polygon style="opacity:0.2;" points="226.294,354.159 238.482,354.531 240.201,344.751 226.863,344.751 		"/>
		<polygon style="fill:#DBB178;" points="196.518,399.476 189.692,398.574 200.497,338.976 213.984,342.826 		"/>
		<path style="fill:#263238;" d="M188.796,397.617c0-0.693,8.525,0,8.525,0s5.17,5.39,10.241,6.6c5.071,1.21,2.2,4.279-3.487,4.202
			l-14.069-0.165C185.925,408.21,188.532,404.8,188.796,397.617z"/>
		<path style="fill:#407BFF;" d="M201.798,399.839c-1.244-0.153-2.45-0.526-3.564-1.1l-0.077-0.055l0,0
			c-0.004-0.026-0.004-0.051,0-0.077c-0.027-0.063-0.027-0.135,0-0.198c0-0.077,0.781-2.079,1.958-2.552
			c0.35-0.154,0.75-0.154,1.1,0c0.506,0.253,0.594,0.55,0.572,0.759c0,0.429-0.539,0.847-1.166,1.188
			c0.585-0.073,1.18,0.018,1.716,0.264c0.235,0.125,0.403,0.346,0.462,0.605c0.13,0.332,0.038,0.711-0.231,0.946
			C202.345,399.779,202.072,399.857,201.798,399.839z M199.125,398.563c1.221,0.517,2.673,0.968,3.047,0.66
			c0.077-0.066,0.099-0.198,0-0.407c-0.032-0.118-0.112-0.218-0.22-0.275C201.025,398.297,200.049,398.304,199.125,398.563z
			 M200.533,396.264c-0.11,0-0.218,0.023-0.319,0.066c-0.637,0.403-1.133,0.996-1.419,1.694c1.221-0.451,2.376-1.1,2.398-1.419
			c0-0.066-0.099-0.165-0.275-0.242c-0.105-0.057-0.222-0.091-0.341-0.099L200.533,396.264z"/>
		<polygon style="opacity:0.2;" points="213.984,342.826 200.497,338.976 198.367,350.724 210.852,352.984 		"/>
		<path style="fill:#407BFF;" d="M223.331,349.368l17.15,0.906c4.391-20.225,8.768-42.511,7.902-47.4
			c-1.65-9.372-14.388-18.909-63.8-26.983l-23.012,34.562c0,0,33.638-1.573,64.295-1.573
			C225.866,308.88,224.156,328.119,223.331,349.368z"/>
		<path style="opacity:0.1;" d="M223.331,349.368l17.15,0.906c4.391-20.225,8.768-42.511,7.902-47.4
			c-1.65-9.372-14.388-18.909-63.8-26.983l-23.012,34.562c0,0,33.638-1.573,64.295-1.573
			C225.866,308.88,224.156,328.119,223.331,349.368z"/>
		<polygon style="fill:#407BFF;" points="222.181,346.676 222.692,351.168 241.484,351.809 242.401,347.684 		"/>
		<path style="fill:#DBB178;" d="M173.628,216.214c-0.97-0.018-1.943-0.031-2.894-0.031c-4.163,0.125-8.315,0.463-12.445,0.989
			c1.802,2.145,7.414,5.499,11.171,5.499C174.709,222.671,173.545,218.771,173.628,216.214z"/>
		<path style="fill:#407BFF;" d="M196.669,345.887l17.529,2.854c7.121-19.933,14.243-41.143,14.121-45.921
			c-0.242-9.515-2.332-14.454-36.762-22.143c0,0-1.826-2.662-6.039-16.5l-33.528,2.2c0,0-15.312,28.204-3.465,40.249
			c2.629,2.673,7.777,3.872,13.046,3.828c0,0,12.1,0.055,41.976-1.342C203.547,309.111,200.034,326.172,196.669,345.887z"/>
		<polygon style="fill:#407BFF;" points="195.968,342.826 216.276,346.263 214.351,350.526 195.88,347.501 		"/>
		<polygon style="opacity:0.1;" points="222.181,346.676 222.692,351.168 241.484,351.809 242.401,347.684 		"/>
		<path style="fill:#DBB178;" d="M171.086,213.323c-0.382,2.468-0.278,4.986,0.308,7.414l-9.197-1.348
			c-0.849-0.124-1.328-1.018-0.983-1.804c1.259-2.869,1.753-8.621,2.062-11.28c0.176-1.595,0.242-3.058,0.253-4.07s0-1.408,0-1.408
			l4.114,1.881l6.71,3.069C172.802,208.066,171.693,210.625,171.086,213.323z"/>
		<path style="opacity:0.2;enable-background:new    ;" d="M174.364,205.777c-1.563,2.286-2.683,4.846-3.3,7.546
			c-3.359-1.33-6.13-3.82-7.81-7.018c0.176-1.595,0.242-3.058,0.253-4.07c1.463,0.143,2.827,0.297,4.125,0.473L174.364,205.777z"/>
		<g>
			<path style="fill:#407BFF;" d="M174.852,199.218c-0.268,3.068,1.299,5.555,3.502,5.555c2.202,0,4.205-2.487,4.473-5.555
				c0.268-3.068-1.299-5.555-3.501-5.555C177.123,193.663,175.12,196.15,174.852,199.218z"/>
			<path style="opacity:0.5;" d="M174.456,199.218c-0.268,3.068,1.299,5.555,3.502,5.555c2.202,0,4.205-2.487,4.473-5.555
				c0.268-3.068-1.299-5.555-3.501-5.555C176.727,193.663,174.724,196.15,174.456,199.218z"/>
		</g>
		<path style="fill:#DBB178;" d="M159.069,193.816c1.637,7.526,2.211,12,6.656,15.434c6.686,5.165,15.547,0.577,16.196-7.207
			c0.584-7.006-2.19-18.135-10.107-20.267C164.015,179.677,157.432,186.29,159.069,193.816z"/>
		<path style="fill:#DBB178;" d="M157.335,201.669c1.346,1.617,3.198,2.571,4.776,2.84c2.373,0.405,2.907-1.794,1.701-3.917
			c-1.085-1.912-3.628-4.426-5.748-3.865C155.976,197.279,155.796,199.82,157.335,201.669z"/>
		<path style="fill:#263238;" d="M170.942,194.562c0.095,0.617,0.501,1.078,0.906,1.03c0.405-0.048,0.656-0.588,0.561-1.205
			c-0.095-0.617-0.501-1.079-0.906-1.03C171.098,193.405,170.847,193.945,170.942,194.562z"/>
		<path style="fill:#263238;" d="M177.948,193.729c0.095,0.617,0.501,1.079,0.906,1.03c0.405-0.048,0.656-0.588,0.561-1.205
			c-0.095-0.617-0.501-1.079-0.906-1.031C178.104,192.572,177.853,193.112,177.948,193.729z"/>
		<path style="fill:#C0854B;" d="M175.768,194.301c0,0,1.959,3.393,3.775,4.927c-0.939,1.15-2.876,0.906-2.876,0.906
			L175.768,194.301z"/>
		<path style="fill:#263238;" d="M168.427,192.567c-0.06,0-0.121-0.015-0.178-0.046c-0.177-0.098-0.241-0.322-0.143-0.499
			c0.973-1.752,2.67-1.853,2.742-1.856c0.19-0.028,0.374,0.145,0.384,0.348c0.01,0.202-0.146,0.374-0.348,0.384
			c-0.07,0.005-1.373,0.104-2.137,1.48C168.681,192.499,168.556,192.567,168.427,192.567z"/>
		<path style="fill:#263238;" d="M180.59,190.972c-0.117,0-0.232-0.056-0.303-0.16c-0.939-1.378-2.303-1.402-2.316-1.402
			c-0.203-0.001-0.366-0.166-0.364-0.368c0.001-0.202,0.165-0.365,0.367-0.365c0.001,0,0.002,0,0.002,0
			c0.072,0.001,1.766,0.03,2.918,1.722c0.114,0.167,0.071,0.396-0.096,0.509C180.733,190.951,180.661,190.972,180.59,190.972z"/>
		<path style="fill:#263238;" d="M160.537,203.708c0,0,4.787-4.889,2.444-16.889c0,0,3.849,3.268,12.787,0.852
			c0,0-5.285,0.517-7.707-1.958c0,0,4.928,2.292,12.895,0c0,0-1.419-8.074-10.034-8.487c0,0,2.766-2.33,5.434-1.872
			c0,0-2.723-2.352-9.653,2.216l-2.713,1.084c0,0-7.716-2.78-12.008,3.758C148.589,187.579,150.302,203.865,160.537,203.708z"/>
		<g>
			<path style="fill:#263238;" d="M178.069,201.5c0,0-2.416-0.61-9.235-0.756c0.756,2.066,2.211,3.771,5.703,3.813
				C178.03,204.599,178.069,201.5,178.069,201.5z"/>
			<path style="fill:#A02724;" d="M172.952,202.912c1.686,0.02,2.895,0.43,3.783,1.072c-0.504,0.35-1.219,0.582-2.195,0.57
				c-1.685-0.02-2.888-0.42-3.775-1.071C171.269,203.133,171.976,202.9,172.952,202.912z"/>
			<path style="fill:#FFFFFF;" d="M177.76,201.435c-0.203,0.433-0.404,0.867-1.09,0.994c-1.423,0.066-5.05-0.415-6.023-0.639
				c-0.623-0.116-1.152-0.341-1.519-1.039C174.379,200.876,176.936,201.277,177.76,201.435z"/>
		</g>
		<g>
			<path style="fill:#407BFF;" d="M156.835,196.412v-8.075c0-5.023,3.338-9.266,7.916-10.632l2.699-0.479
				c-4.695,1.401-8.119,5.753-8.119,10.904v8.282H156.835z"/>
			<path style="fill:#407BFF;" d="M163.101,200.318c0.268,3.068-1.299,5.555-3.502,5.555c-2.202,0-4.205-2.487-4.473-5.555
				c-0.268-3.068,1.299-5.554,3.501-5.554C160.83,194.763,162.833,197.25,163.101,200.318z"/>
			<path style="opacity:0.5;" d="M163.101,200.318c0.268,3.068-1.299,5.555-3.502,5.555c-2.202,0-4.205-2.487-4.473-5.555
				c-0.268-3.068,1.299-5.554,3.501-5.554C160.83,194.763,162.833,197.25,163.101,200.318z"/>
			<path style="fill:#407BFF;" d="M161.765,200.318c0.268,3.068-1.299,5.555-3.501,5.555s-4.205-2.487-4.473-5.555
				c-0.268-3.068,1.299-5.554,3.501-5.554C159.494,194.763,161.497,197.25,161.765,200.318z"/>
			<path style="opacity:0.3;fill:#FFFFFF;" d="M158.982,201.127l-0.184-1.619h0.312c-0.403-1.589-1.525-2.777-2.746-2.777
				c-1.221,0-2.135,1.188-2.26,2.777h0.202l0.184,1.619h-0.245c0.403,1.589,1.525,2.777,2.746,2.777c1.221,0,2.135-1.188,2.26-2.777
				H158.982z"/>
		</g>
		<g>
			<g>
				<g>
					<path style="fill:#DBB178;" d="M144.63,200.978l4.365-8.583l3.529,8.348c0,0-3.543,4.494-7.191,3.846L144.63,200.978z"/>
					<polygon style="fill:#DBB178;" points="155.786,189.229 158.362,196.378 152.524,200.743 148.995,192.396 					"/>
				</g>
				<polygon style="fill:#DBB178;" points="145.775,210.258 149.977,203.187 149.544,200.31 145.838,198.998 140.567,207.203 				
					"/>
			</g>
			<path style="fill:#407BFF;" d="M148.808,205.862l-7.672,16.88c0,0,3.736-3.347,5.797-3.831c3.281-0.77,13.173,2.219,3.146,13.107
				c0,0-19.855,12.415-23.908,7.604c-3.149-3.738,10.23-26.473,16.357-36.433L148.808,205.862z"/>
			<path style="opacity:0.6;fill:#FFFFFF;" d="M148.808,205.862l-7.672,16.88c0,0,3.736-3.347,5.797-3.831
				c3.281-0.77,13.173,2.219,3.146,13.107c0,0-19.855,12.415-23.908,7.604c-3.149-3.738,10.23-26.473,16.357-36.433L148.808,205.862
				z"/>
			<path style="opacity:0.2;" d="M141.136,222.742l-2.172,6.585l6.279-9.662C143.3,220.805,141.136,222.742,141.136,222.742z"/>
		</g>
		<g>
			<g>
				<g>
					<path style="fill:#407BFF;" d="M169.87,207.772c-1.001,0-1.944-0.041-2.508-0.164c-1.674-0.366-6.009-2.736-6.193-2.836
						l0.396-0.724c0.044,0.025,4.415,2.413,5.973,2.754c1.516,0.332,6.355-0.005,6.404-0.009l0.058,0.823
						C173.867,207.626,171.765,207.772,169.87,207.772z"/>
				</g>
				<path style="fill:#407BFF;" d="M170.766,207.939l3.962-0.298c0,0-0.112-1.238-1.981-1.192
					C170.878,206.495,170.766,207.939,170.766,207.939z"/>
			</g>
			<g style="opacity:0.5;">
				<g>
					<path d="M169.87,207.772c-1.001,0-1.944-0.041-2.508-0.164c-1.674-0.366-6.009-2.736-6.193-2.836l0.396-0.724
						c0.044,0.025,4.415,2.413,5.973,2.754c1.516,0.332,6.355-0.005,6.404-0.009l0.058,0.823
						C173.867,207.626,171.765,207.772,169.87,207.772z"/>
				</g>
				<path d="M170.766,207.939l3.962-0.298c0,0-0.112-1.238-1.981-1.192C170.878,206.495,170.766,207.939,170.766,207.939z"/>
			</g>
		</g>
	</g>
</g>
<g id="Desk">
	<g>
		<g>
			<g>
				<path style="fill:#407BFF;" d="M330.063,408.54c-0.834,0.098-1.579-0.612-1.663-1.586l-10.004-115.788
					c-0.193-2.23-1.787-3.912-3.707-3.912H267.45c-1.92,0-3.514,1.682-3.707,3.912l-10.004,115.788
					c-0.084,0.974-0.829,1.684-1.663,1.586l0,0c-0.835-0.098-1.443-0.967-1.359-1.942l10.004-115.787
					c0.35-4.049,3.243-7.103,6.729-7.103h47.239c3.486,0,6.379,3.053,6.729,7.103l10.004,115.787
					C331.506,407.573,330.898,408.442,330.063,408.54L330.063,408.54z"/>
			</g>
			<g style="opacity:0.4;">
				<path d="M330.063,408.54c-0.834,0.098-1.579-0.612-1.663-1.586l-10.004-115.788c-0.193-2.23-1.787-3.912-3.707-3.912H267.45
					c-1.92,0-3.514,1.682-3.707,3.912l-10.004,115.788c-0.084,0.974-0.829,1.684-1.663,1.586l0,0
					c-0.835-0.098-1.443-0.967-1.359-1.942l10.004-115.787c0.35-4.049,3.243-7.103,6.729-7.103h47.239
					c3.486,0,6.379,3.053,6.729,7.103l10.004,115.787C331.506,407.573,330.898,408.442,330.063,408.54L330.063,408.54z"/>
			</g>
			<path style="fill:#263238;" d="M329.4,289.39H200.991c-1.121,0-2.03-0.909-2.03-2.03v-6.579c0-1.121,0.909-2.03,2.03-2.03H329.4
				c1.121,0,2.03,0.909,2.03,2.03v6.579C331.43,288.481,330.521,289.39,329.4,289.39z"/>
			<path style="opacity:0.2;fill:#FFFFFF;" d="M329.4,289.39h-56.104v-10.639H329.4c1.121,0,2.03,0.909,2.03,2.03v6.579
				C331.43,288.481,330.521,289.39,329.4,289.39z"/>
			<g>
				<g>
					<path style="fill:#407BFF;" d="M278.316,408.54c-0.834,0.098-1.579-0.612-1.663-1.586l-10.004-115.788
						c-0.193-2.23-1.787-3.912-3.707-3.912h-47.239c-1.92,0-3.514,1.682-3.707,3.912l-10.004,115.788
						c-0.084,0.974-0.829,1.684-1.663,1.586l0,0c-0.835-0.098-1.443-0.967-1.359-1.942l10.004-115.787
						c0.35-4.049,3.243-7.103,6.729-7.103h47.239c3.486,0,6.379,3.053,6.729,7.103l10.004,115.787
						C279.759,407.573,279.15,408.442,278.316,408.54L278.316,408.54z"/>
				</g>
				<g style="opacity:0.4;">
					<path d="M278.316,408.54c-0.834,0.098-1.579-0.612-1.663-1.586l-10.004-115.788c-0.193-2.23-1.787-3.912-3.707-3.912h-47.239
						c-1.92,0-3.514,1.682-3.707,3.912l-10.004,115.788c-0.084,0.974-0.829,1.684-1.663,1.586l0,0
						c-0.835-0.098-1.443-0.967-1.359-1.942l10.004-115.787c0.35-4.049,3.243-7.103,6.729-7.103h47.239
						c3.486,0,6.379,3.053,6.729,7.103l10.004,115.787C279.759,407.573,279.15,408.442,278.316,408.54L278.316,408.54z"/>
				</g>
			</g>
		</g>
		<g>
			<g>
				<path style="fill:#263238;" d="M276.639,278.731h-33.554c-0.967,0-1.751-0.784-1.751-1.751v-3.474h37.056v3.474
					C278.39,277.947,277.606,278.731,276.639,278.731z"/>
				<path style="opacity:0.2;fill:#FFFFFF;" d="M276.639,278.731h-33.554c-0.967,0-1.751-0.784-1.751-1.751v-3.474h37.056v3.474
					C278.39,277.947,277.606,278.731,276.639,278.731z"/>
			</g>
			<g>
				<path style="fill:#263238;" d="M250.422,278.731h-33.554c-0.967,0-1.751-0.784-1.751-1.751v-3.474h37.056v3.474
					C252.173,277.947,251.389,278.731,250.422,278.731z"/>
				<path style="opacity:0.6;fill:#FFFFFF;" d="M250.422,278.731h-33.554c-0.967,0-1.751-0.784-1.751-1.751v-3.474h37.056v3.474
					C252.173,277.947,251.389,278.731,250.422,278.731z"/>
				<rect x="244.454" y="275.5" style="fill:#263238;" width="3.438" height="1.237"/>
				<rect x="238.941" y="275.5" style="fill:#263238;" width="3.438" height="1.237"/>
			</g>
			<g>
				<path style="fill:#263238;" d="M280.962,278.748l1.767,0.003c1.018,0.002,1.887-0.736,2.05-1.74l6-36.895
					c0.205-1.26-0.766-2.404-2.043-2.406l-28.788-0.052l-7.774,41.039l1.767,0.003L280.962,278.748z"/>
				<path style="opacity:0.6;fill:#FFFFFF;" d="M280.962,278.748l1.767,0.003c1.018,0.002,1.887-0.736,2.05-1.74l6-36.895
					c0.205-1.26-0.766-2.404-2.043-2.406l-28.788-0.052l-7.774,41.039l1.767,0.003L280.962,278.748z"/>
				<path style="opacity:0.2;" d="M252.668,276.084l-0.495,2.612l1.767,0.003l27.022,0.049l1.767,0.003
					c1.018,0.002,1.887-0.736,2.05-1.74l0.141-0.868L252.668,276.084z"/>
				<path style="fill:#263238;" d="M252.21,278.731h1.767c1.018,0,1.886-0.739,2.047-1.744l5.933-36.906
					c0.203-1.26-0.771-2.403-2.047-2.403l0,0L252.21,278.731z"/>
				<path style="opacity:0.3;fill:#FFFFFF;" d="M252.21,278.731h1.767c1.018,0,1.886-0.739,2.047-1.744l5.933-36.906
					c0.203-1.26-0.771-2.403-2.047-2.403l0,0L252.21,278.731z"/>
			</g>
		</g>
	</g>
</g>
</svg>
