<?xml version="1.0" encoding="utf-8"?>
<!-- Generator: Adobe Illustrator 27.5.0, SVG Export Plug-In . SVG Version: 6.00 Build 0)  -->
<svg version="1.1" id="Capa_1" xmlns="http://www.w3.org/2000/svg" xmlns:xlink="http://www.w3.org/1999/xlink" x="0px" y="0px"
	 viewBox="0 0 396.814 425.197" style="enable-background:new 0 0 396.814 425.197;" xml:space="preserve">
<rect x="0" y="0" style="fill:#FFFFFF;" width="396.815" height="425.197"/>
<ellipse style="fill:#B2B2B2;" cx="140.716" cy="340.871" rx="101.251" ry="15.103"/>
<ellipse style="fill:#B2B2B2;" cx="254.798" cy="370.405" rx="101.251" ry="15.103"/>
<g>
	<g>
		<g>
			<path style="fill:#3A414B;" d="M222.441,335.428c0.012,3.884-3.127,7.047-7.014,7.057l-149.342,0.497
				c-3.879,0.013-7.043-3.126-7.055-7.01L58.189,82.635c-0.014-3.884,3.133-7.047,7.012-7.058l149.34-0.495
				c3.887-0.014,7.049,3.126,7.059,7.009L222.441,335.428z"/>
			<path style="fill:#FFFFFF;" d="M205.893,331.698c3.584-0.012,6.479-2.927,6.465-6.511l-0.775-233.666
				c-0.012-3.582-2.924-6.479-6.508-6.465l-37.02-3.723l41.504-0.137c3.693-0.012,6.697,2.975,6.709,6.668l0.801,240.949
				c0.012,3.697-2.973,6.7-6.666,6.714l-50.283,0.165L205.893,331.698z"/>
			<path style="fill:#C6C6C6;" d="M204.188,311.647c-33.148-8.202-58.131-32.461-76.238-60.413
				c-9.758-15.054-18.283-31.071-24.568-47.881c-7.086-18.979-11.498-38.802-13.869-58.902c-2.289-19.405-2.486-39.011-2.24-58.534
				c0.043-3.469,0.133-6.943,0.305-10.414l-22.375,0.075c-3.879,0.011-7.025,3.174-7.012,7.058l0.842,253.337
				c0.012,3.884,3.176,7.022,7.055,7.01l149.342-0.497c3.887-0.01,7.025-3.173,7.014-7.057l-0.07-20.59
				C216.281,314.18,210.207,313.137,204.188,311.647z"/>
			<path style="fill:#FFFFFF;" d="M207.529,307.814c0.008,3.18-2.563,5.767-5.742,5.778l-122.244,0.404
				c-3.182,0.01-5.771-2.56-5.777-5.739l-0.689-207.369c-0.01-3.184,2.561-5.771,5.744-5.778l122.244-0.406
				c3.178-0.012,5.766,2.558,5.775,5.74L207.529,307.814z"/>
			<path style="fill:#C6C6C6;" d="M203.682,274.591c-29.707-5.561-57.293-20.265-76.744-43.672
				c-9.924-11.948-17.775-25.258-23.664-39.619c-7.279-17.749-13.809-35.976-17.426-54.868c-2.619-13.689-3.793-27.514-3.158-41.337
				l-3.869,0.015c-3.184,0.008-5.754,2.595-5.744,5.778l0.689,207.369c0.006,3.18,2.596,5.749,5.777,5.739l122.244-0.404
				c3.18-0.012,5.75-2.599,5.742-5.778l-0.109-32.579C206.172,275.038,204.928,274.821,203.682,274.591z"/>
			<g>
				<path style="fill:#C6C6C6;" d="M162.463,328.332c0.008,2.584-2.086,4.692-4.672,4.7l-34.123,0.113
					c-2.592,0.01-4.693-2.085-4.701-4.67l0,0c-0.01-2.589,2.078-4.691,4.67-4.7l34.125-0.113
					C160.346,323.653,162.455,325.74,162.463,328.332L162.463,328.332z"/>
				<path style="fill:#C6C6C6;" d="M123.668,333.146l34.123-0.113c2.586-0.008,4.68-2.116,4.672-4.7l-43.496,0.144
					C118.975,331.06,121.076,333.155,123.668,333.146z"/>
			</g>
		</g>
		<g>
			<g>
				<g>
					<path style="fill:#E6332A;" d="M153.266,158.021L153.266,158.021c18.369,5.948,31.699,27.207,31.766,47.561
						c0.082,25.354-20.396,45.965-45.742,46.051c-24.508,0.079-44.592-19.063-45.971-43.237c-0.045,0.909-0.066,1.826-0.064,2.748
						c0.1,29.472,24.072,53.28,53.539,53.185c29.471-0.101,53.277-24.069,53.182-53.539
						C199.885,183.635,179.523,161.285,153.266,158.021z"/>
					<path style="fill:#C6C6C6;" d="M153.266,158.021L153.266,158.021c22.367,3.932,39.414,26.266,39.49,49.77
						c0.088,26.406-21.244,47.881-47.648,47.968c-12.459,0.044-23.814-4.682-32.348-12.461
						c-11.121-7.827-18.619-20.466-19.441-34.901c-0.045,0.909-0.066,1.826-0.064,2.748c0.1,29.472,24.072,53.28,53.539,53.185
						c29.471-0.101,53.277-24.069,53.182-53.539C199.885,183.635,179.523,161.285,153.266,158.021z"/>
					<polygon style="fill:#E6332A;" points="107.824,219.088 92.252,202.157 80.709,222.055 93.545,213.975 					"/>
				</g>
				<g>
					<path style="fill:#E6332A;" d="M140.041,169.573l-0.014-4.966c-0.236-0.004-0.467-0.008-0.701-0.008
						c-0.229,0-0.465,0.008-0.691,0.012l0.018,4.966L140.041,169.573z"/>
					<path style="fill:#E6332A;" d="M138.885,239.793l0.016,4.861c0.23,0.004,0.461,0.004,0.691,0.002
						c0.234-0.002,0.465-0.002,0.701-0.009l-0.018-4.859L138.885,239.793z"/>
					<path style="fill:#E6332A;" d="M174.574,205.266l4.91-0.017c0.002-0.249,0.006-0.5,0.006-0.753
						c0-0.213-0.006-0.426-0.006-0.639l-4.916,0.013L174.574,205.266z"/>
					<path style="fill:#E6332A;" d="M104.355,204.105l-4.918,0.017c-0.002,0.213-0.004,0.427-0.004,0.64
						c0.002,0.252,0.008,0.504,0.02,0.752l4.91-0.017L104.355,204.105z"/>
					<path style="fill:#E6332A;" d="M157.721,234.68l2.613,4.113c0.396-0.243,0.785-0.49,1.176-0.752l-2.617-4.109L157.721,234.68z"
						/>
					<path style="fill:#E6332A;" d="M121.205,174.684l-2.664-4.186c-0.396,0.239-0.787,0.493-1.17,0.75l2.662,4.186L121.205,174.684
						z"/>
					<path style="fill:#E6332A;" d="M109.621,186.178l-4.254-2.526c-0.248,0.4-0.482,0.794-0.709,1.2l4.258,2.525L109.621,186.178z"
						/>
					<path style="fill:#E6332A;" d="M169.305,223.192l4.203,2.491c0.246-0.393,0.486-0.787,0.713-1.19l-4.207-2.5L169.305,223.192z"
						/>
					<path style="fill:#E6332A;" d="M158.293,175.047l2.576-4.244c-0.391-0.247-0.789-0.49-1.188-0.721l-2.582,4.239
						L158.293,175.047z"/>
					<path style="fill:#E6332A;" d="M120.629,234.323l-2.527,4.165c0.396,0.249,0.791,0.488,1.188,0.722l2.533-4.16L120.629,234.323
						z"/>
					<path style="fill:#E6332A;" d="M169.865,187.111l4.23-2.563c-0.232-0.399-0.48-0.796-0.721-1.191l-4.232,2.561L169.865,187.111
						z"/>
					<path style="fill:#E6332A;" d="M109.063,222.263l-4.189,2.529c0.238,0.401,0.479,0.797,0.729,1.191l4.182-2.529
						L109.063,222.263z"/>
				</g>
				<g>
					<path d="M115.197,214.761c0.018-3.718,0.887-6.29,6.012-9.995c2.865-2.064,3.709-3.096,3.703-4.788
						c-0.006-2.025-1.248-2.626-2.789-2.62c-1.783,0.006-2.93,0.887-2.92,3.576l-3.779,0.012c-0.014-4.322,2.396-6.93,6.506-6.943
						c4.051-0.014,6.807,1.882,6.82,5.842c0.01,3.053-1.494,4.812-5.777,7.879c-1.537,1.123-2.682,2.578-2.768,3.605l8.644-0.028
						l0.01,3.416L115.197,214.761z"/>
					<path d="M136.896,214.689l-0.014-4.383l-7.799,0.025l-0.012-3.416l7.273-12.297l4.414-0.015l0.043,12.636l2.266-0.007
						l0.01,3.053l-2.266,0.007l0.014,4.383L136.896,214.689z M136.939,200.18l-4.088,7.087l4.111-0.014L136.939,200.18z"/>
					<path d="M143.059,214.669l5.678-20.091l3.295-0.011l-5.738,20.091L143.059,214.669z"/>
					<path d="M154.967,214.629c0.436-5.774,2.771-11.737,6.988-16.617l-9.793,0.032l-0.012-3.477l14.055-0.047l0.01,3.022
						c-4.486,5.003-6.914,11.057-7.197,17.073L154.967,214.629z"/>
				</g>
			</g>
			<g>
				<g>
					<path style="fill:#D42A26;" d="M84.746,185.695c0,0-2.201,9.23,6.568,16.379l9.807-6.218l1.521-0.96l9.807-6.219
						c-2.723-10.975-12.002-12.926-12.002-12.926s-11.697-1.553,12.096-14.901l-5.025-7.933
						C107.518,152.918,87.287,165.313,84.746,185.695z"/>
					<path style="fill:#C6C6C6;" d="M108.365,185.182c-2.291,2.602-5.234,4.774-8.49,5.992c-3.221,1.205-5.615,1.301-8.699,0.33
						c-1.867-0.59-7.154-2.985-6.43-5.809c-0.002,0.004-2.199,9.23,6.568,16.379l21.135-13.396c-0.563-2.273-1.416-4.161-2.4-5.724
						C109.545,183.743,108.977,184.495,108.365,185.182z"/>
					<g>
						<path style="fill:#8C1F14;" d="M88.99,200.154c0.059,0.148,0.129,0.291,0.215,0.431l0.83,1.312
							c0.691,1.082,2.127,1.404,3.211,0.713l18.916-11.982c1.082-0.688,1.41-2.127,0.723-3.207l-0.832-1.315
							c-0.094-0.132-0.185-0.263-0.297-0.376L88.99,200.154z"/>
						<path style="fill:#C6C6C6;" d="M101.754,195.395c-2.033,0.839-4.361,1.766-6.592,1.726c-0.389-0.008-0.793-0.039-1.188-0.12
							l-5.006,3.169c0.059,0.15,0.127,0.294,0.211,0.432l0.83,1.308c0.689,1.083,2.125,1.408,3.211,0.717l18.916-11.984
							c1.086-0.686,1.408-2.125,0.721-3.207l-0.627-0.982c-0.809,1.503-2.014,2.78-3.186,4.013
							C106.922,192.688,104.563,194.235,101.754,195.395z"/>
					</g>
					<path style="fill:#FFFFFF;" d="M89.16,200.051l22.381-14.185c-0.137-0.343-0.285-0.671-0.438-0.993L88.449,199.23
						C88.672,199.505,88.904,199.778,89.16,200.051z"/>
					<path style="fill:#FFFFFF;" d="M99.43,177.804l-3.592,2.278c2.875,1.183,6.539,3.271,8.623,6.688
						c2.109-1.809,2.951-3.725,2.951-3.725C105.266,178.979,99.43,177.804,99.43,177.804z"/>
				</g>
				<g>
					<path style="fill:#D42A26;" d="M147.928,145.662c0,0,9.285,1.951,12.006,12.932l-9.809,6.214l-1.52,0.961l-9.807,6.218
						c-8.768-7.153-6.564-16.378-6.564-16.378s2.305-10.428-19.928,5.391l-5.023-7.929
						C107.283,153.07,128.414,139.254,147.928,145.662z"/>
					<path style="fill:#C6C6C6;" d="M137.375,166.803c3.33-0.965,6.555-2.695,9.043-5.121c2.467-2.401,3.58-4.524,4.018-7.722
						c0.262-1.944,0.359-7.751-2.508-8.298c0,0,9.285,1.953,12.006,12.932l-21.135,13.393c-1.818-1.488-3.168-3.059-4.156-4.618
						C135.574,167.246,136.498,167.052,137.375,166.803z"/>
					<g>
						<path style="fill:#8C1F14;" d="M159.193,155.672c0.109,0.117,0.207,0.239,0.295,0.383l0.828,1.305
							c0.689,1.088,0.365,2.521-0.719,3.209l-18.914,11.988c-1.092,0.686-2.525,0.364-3.211-0.718l-0.832-1.313
							c-0.084-0.135-0.156-0.278-0.213-0.424L159.193,155.672z"/>
						<path style="fill:#C6C6C6;" d="M149.436,165.184c1.631-1.477,3.463-3.193,4.379-5.225c0.154-0.352,0.299-0.732,0.393-1.126
							l5.01-3.173c0.109,0.112,0.209,0.238,0.299,0.378l0.826,1.308c0.689,1.083,0.365,2.522-0.719,3.21l-18.918,11.986
							c-1.082,0.688-2.521,0.363-3.205-0.722l-0.623-0.982c1.705-0.091,3.375-0.629,4.984-1.165
							C144.785,168.698,147.189,167.23,149.436,165.184z"/>
					</g>
					<path style="fill:#FFFFFF;" d="M159.025,155.78l-22.377,14.184c-0.256-0.273-0.496-0.548-0.717-0.817l22.654-14.361
						C158.74,155.107,158.889,155.438,159.025,155.78z"/>
					<path style="fill:#FFFFFF;" d="M134.518,155.572l3.598-2.283c-0.156,3.104,0.168,7.312,2.365,10.653
						c-2.531,1.14-4.629,1.086-4.629,1.086C133.092,161.344,134.518,155.572,134.518,155.572z"/>
				</g>
			</g>
		</g>
	</g>
	<g>
		<g>
			<polygon points="226.953,314.202 282.387,314.202 282.387,274.81 223.586,274.81 			"/>
			<path style="fill:#E0BC89;" d="M293.391,255.438c0,4.247-2.818,7.69-6.295,7.69c-3.475,0-6.291-3.443-6.291-7.69
				c0-4.247,2.816-7.691,6.291-7.691C290.572,247.747,293.391,251.19,293.391,255.438z"/>
			<path style="fill:#E0BC89;" d="M228.521,255.771c0.672,4.194-1.566,8.04-4.998,8.589c-3.432,0.549-6.756-2.405-7.428-6.601
				c-0.674-4.193,1.566-8.038,4.998-8.588C224.523,248.623,227.852,251.577,228.521,255.771z"/>
			<polygon style="fill:#D4B282;" points="236.48,283.819 236.48,318.359 271.297,318.359 271.297,288.163 			"/>
			<path style="fill:#E0BC89;" d="M219.84,237.12l5.035,39.884c0,0,0.559,8.166,10.627,14.903l11.746,5.604c0,0,5.033,4.46,13.422,0
				l11.746-5.604c0,0,12.303-6.9,11.746-14.903l5.592-39.884c0,0,0.84-37.054-35.934-36.355
				C253.82,200.766,219.84,201.465,219.84,237.12z"/>
			<path style="fill:#431A13;" d="M276.266,227.658c0,0,11.18,10.302,8.453,29.108l2.377-1.329c0,0,4.672-13.381,2.658-23.91
				L276.266,227.658z"/>
			<path style="fill:#2A0B01;" d="M219.689,228.45c-0.918,10.682,2.66,23.911,2.66,23.911l3.295,3.076
				c0.811-16.635,7.537-30.855,7.537-30.855s2.881-3.401,10.709-5.499l-11.885-10.627
				C232.006,208.456,220.801,215.587,219.689,228.45z"/>
			<path style="fill:#431A13;" d="M289.705,235.293c0,0,2.357-34.808-32.672-36.904c0,0-21.451-2.072-26.77,11.862
				c0,0-1.359,4.179,2.441,7.014c0,0,3.406,20.98,36.754,22.868C269.459,240.133,284.783,241.641,289.705,235.293z"/>
			<path style="fill:#431A13;" d="M236.48,309.46"/>
			<path style="fill:#D4B282;" d="M317.93,320.477l-63.131-15.709v-0.23l-0.455,0.117l-0.455-0.117v0.23l-63.133,15.709
				c0,0-17.617,3.916-20.693,47.064h83.826h0.91h83.826C335.547,324.393,317.93,320.477,317.93,320.477z"/>
			<path style="fill:#E74645;" d="M215.977,314.202l-25.221,6.274c0,0-17.617,3.916-20.693,47.064h83.826h0.91h83.826
				c-3.078-43.147-20.695-47.064-20.695-47.064l-23.945-5.958l-37.389,53.022L215.977,314.202z"/>
			<path style="fill:#9A2A27;" d="M256.596,367.54l-40.619-53.338c0,0-31.672,8.708,9.438,33.877c0,0-9.438,5.662,12.48,12.479
				L256.596,367.54z"/>
			<path style="fill:#9A2A27;" d="M256.596,367.54l37.389-53.022c0,0,35.435,8.471-5.672,33.64c0,0,9.434,5.663-12.48,12.479
				L256.596,367.54z"/>
			<path style="fill:#431A13;" d="M287.246,219.53c0,0,20.24,60.598,3.014,87.75c0,0-11.853,11.435-26.113,18.426
				c0,0,26.939-31.612,13.189-85.579L287.246,219.53z"/>
			<path style="fill:#2A0B01;" d="M227.605,232.762c0,0-8.764,64.141,7.457,92.944l-19.086-21.873c0,0-11.646-15.32,5.49-82.556
				L227.605,232.762z"/>
			<polygon style="fill:#FFFFFF;" points="256.596,367.54 277.73,337.566 233.768,337.566 			"/>
		</g>
		<g>
			<g>
				<path style="fill:#DADADA;" d="M251.303,305.783c-13.516-1.866-23.539-7.138-29.799-15.668
					c-9.305-12.683-6.877-27.834-6.768-28.474l2.48,0.419c-0.023,0.147-2.348,14.78,6.334,26.589
					c5.842,7.946,15.295,12.873,28.096,14.641L251.303,305.783z"/>
			</g>
			<g>
				<g>
					<path style="fill:#C6C6C6;" d="M213.797,259.07c-4.441-7.309-6.787-15.714-6.787-24.307c0-25.85,21.029-46.88,46.879-46.88
						c25.848,0,46.879,21.03,46.879,46.88c0,7.433-1.699,14.557-5.057,21.173l-2.014-1.02c3.195-6.297,4.816-13.077,4.816-20.152
						c0-24.607-20.02-44.624-44.625-44.624c-24.604,0-44.623,20.018-44.623,44.624c0,8.181,2.232,16.181,6.457,23.135
						L213.797,259.07z"/>
				</g>
				<g>
					<path d="M219.84,259.758c0,2.578-2.088,4.668-4.668,4.668l0,0c-2.576,0-4.668-2.09-4.668-4.668V246.88
						c0-2.577,2.092-4.668,4.668-4.668l0,0c2.58,0,4.668,2.091,4.668,4.668V259.758z"/>
					<path style="fill:#F9B233;" d="M210.738,245.425v15.041C210.738,260.466,203.717,253.839,210.738,245.425z"/>
				</g>
				<g>
					<path d="M289.754,246.506c0-2.578,2.09-4.667,4.67-4.667l0,0c2.578,0,4.666,2.089,4.666,4.667v12.878
						c0,2.578-2.088,4.668-4.666,4.668l0,0c-2.58,0-4.67-2.09-4.67-4.668V246.506z"/>
					<path style="fill:#F9B233;" d="M298.855,260.84v-15.042C298.855,245.798,305.879,252.425,298.855,260.84z"/>
				</g>
			</g>
			<path d="M259.885,304.436c0,1.85-1.5,3.348-3.348,3.348h-7.799c-1.85,0-3.346-1.498-3.346-3.348l0,0
				c0-1.849,1.496-3.348,3.346-3.348h7.799C258.385,301.089,259.885,302.588,259.885,304.436L259.885,304.436z"/>
		</g>
	</g>
	<g>
		<g style="enable-background:new    ;">
			<g>
				<polygon style="fill:#8C1F14;" points="261.836,188.653 239.863,176.701 239.908,154.359 261.881,166.311 				"/>
			</g>
			<g>
				<polygon style="fill:#5D1403;" points="261.881,166.311 239.908,154.359 261.24,151.359 283.213,163.313 				"/>
			</g>
			<g>
				<polygon style="fill:#D42A26;" points="261.836,188.653 261.881,166.311 283.213,163.313 283.172,185.656 				"/>
			</g>
		</g>
		<g style="enable-background:new    ;">
			<path style="fill:#8C1F14;" d="M284.898,109.166c0.125-0.275,0.24-0.553,0.35-0.838c0.023-0.066,0.049-0.127,0.078-0.192
				c0.012-0.043,0.021-0.092,0.043-0.134c0.154-0.438,0.297-0.88,0.422-1.34c0.02-0.072,0.041-0.147,0.055-0.219
				c0.111-0.426,0.205-0.865,0.291-1.313c0.02-0.086,0.037-0.175,0.049-0.261c0.082-0.494,0.154-1.002,0.201-1.525
				c0.008-0.115,0.014-0.232,0.027-0.351c0.041-0.544,0.07-1.104,0.07-1.686c0.012-6.339-2.15-10.03-5.453-11.826
				c-7.326-3.985-14.652-7.969-21.973-11.951c3.303,1.797,5.465,5.486,5.457,11.824c0,0.585-0.029,1.145-0.072,1.688
				c-0.014,0.118-0.018,0.232-0.029,0.347c-0.047,0.523-0.115,1.036-0.195,1.529c-0.018,0.086-0.033,0.172-0.053,0.256
				c-0.078,0.454-0.18,0.895-0.293,1.322c-0.018,0.072-0.029,0.143-0.051,0.213c-0.127,0.463-0.27,0.909-0.428,1.346
				c-0.037,0.104-0.078,0.21-0.119,0.314c-0.109,0.285-0.228,0.568-0.346,0.848c-0.041,0.088-0.074,0.178-0.115,0.266
				c-0.16,0.351-0.33,0.697-0.51,1.031c-0.045,0.076-0.082,0.147-0.125,0.223c-0.146,0.264-0.295,0.524-0.453,0.781
				c-0.059,0.102-0.123,0.199-0.184,0.295c-0.162,0.256-0.326,0.504-0.494,0.751c-0.049,0.063-0.09,0.126-0.135,0.19
				c-0.27,0.385-0.555,0.758-0.844,1.129c-0.057,0.065-0.113,0.139-0.168,0.207c-0.293,0.362-0.596,0.719-0.9,1.07
				c-0.049,0.053-0.094,0.102-0.139,0.154c-0.301,0.33-0.6,0.659-0.906,0.979c-0.033,0.035-0.06,0.068-0.09,0.103
				c-0.332,0.339-0.66,0.677-0.998,1.01c-0.066,0.069-0.137,0.137-0.201,0.204c-0.334,0.324-0.66,0.646-0.996,0.971
				c-0.076,0.073-0.15,0.145-0.227,0.218c-0.311,0.296-0.613,0.589-0.922,0.884c-0.363,0.344-0.727,0.693-1.09,1.045
				c-0.074,0.072-0.15,0.144-0.225,0.219c-0.354,0.336-0.697,0.676-1.039,1.023c-0.051,0.049-0.1,0.094-0.146,0.143
				c-0.322,0.324-0.643,0.651-0.963,0.986c-0.049,0.051-0.098,0.102-0.146,0.152c-0.332,0.353-0.662,0.707-0.984,1.074
				c-0.037,0.041-0.074,0.08-0.113,0.123c-0.029,0.035-0.057,0.069-0.09,0.105c-0.342,0.393-0.682,0.789-1.012,1.199
				c-0.049,0.057-0.09,0.114-0.139,0.174c-0.344,0.434-0.689,0.879-1.012,1.34c-0.064,0.086-0.127,0.171-0.186,0.257
				c-0.07,0.104-0.133,0.208-0.203,0.313c-0.291,0.42-0.57,0.841-0.83,1.259c-0.117,0.179-0.229,0.36-0.34,0.54
				c-0.248,0.408-0.48,0.82-0.711,1.233c-0.059,0.111-0.133,0.223-0.193,0.334c-0.021,0.043-0.041,0.088-0.064,0.133
				c-0.318,0.6-0.617,1.205-0.898,1.821c-0.053,0.122-0.105,0.247-0.164,0.371c-0.219,0.508-0.432,1.026-0.627,1.55
				c-0.039,0.096-0.086,0.189-0.119,0.285c-0.061,0.159-0.113,0.32-0.168,0.481c-0.037,0.108-0.076,0.214-0.113,0.324
				c-0.15,0.45-0.297,0.907-0.432,1.372c-0.031,0.092-0.053,0.188-0.08,0.282c-0.115,0.407-0.229,0.819-0.328,1.241
				c-0.027,0.104-0.053,0.215-0.078,0.324c-0.117,0.486-0.225,0.976-0.326,1.48c-0.02,0.115-0.041,0.23-0.064,0.344
				c-0.086,0.446-0.16,0.896-0.234,1.357c-0.016,0.103-0.031,0.202-0.049,0.307c-0.084,0.531-0.154,1.076-0.223,1.631
				c-0.016,0.133-0.033,0.271-0.049,0.408c-0.057,0.496-0.111,1.004-0.156,1.52c-0.012,0.094-0.02,0.184-0.021,0.279
				c-0.055,0.587-0.1,1.193-0.137,1.811c-0.008,0.155-0.021,0.311-0.029,0.471c-0.027,0.582-0.061,1.174-0.084,1.781
				c-0.006,0.061-0.01,0.12-0.014,0.188c-0.02,0.66-0.035,1.346-0.053,2.039c-0.008,0.174-0.008,0.345-0.008,0.518
				c-0.01,0.708-0.02,1.43-0.025,2.174l21.973,11.951c0-0.746,0.008-1.469,0.025-2.182c0-0.166,0.004-0.33,0.008-0.498
				c0.016-0.701,0.029-1.393,0.057-2.064c0-0.049,0-0.094,0.004-0.139c0.029-0.627,0.053-1.235,0.09-1.835
				c0.006-0.146,0.022-0.294,0.029-0.436c0.035-0.626,0.076-1.24,0.135-1.835c0.004-0.081,0.012-0.159,0.016-0.241
				c0.051-0.533,0.105-1.057,0.164-1.568c0.016-0.124,0.031-0.254,0.047-0.377c0.066-0.563,0.143-1.113,0.221-1.649
				c0.014-0.097,0.033-0.187,0.045-0.28c0.078-0.477,0.16-0.938,0.246-1.393c0.02-0.105,0.035-0.214,0.057-0.316
				c0.103-0.51,0.211-1.011,0.33-1.5c0.021-0.102,0.047-0.202,0.072-0.303c0.105-0.432,0.217-0.855,0.34-1.275
				c0.02-0.084,0.043-0.168,0.068-0.25c0.135-0.473,0.281-0.936,0.44-1.395c0.033-0.1,0.068-0.197,0.103-0.295
				c0.094-0.268,0.191-0.533,0.295-0.796c0.195-0.517,0.402-1.026,0.627-1.527c0.053-0.129,0.102-0.257,0.166-0.388
				c0.277-0.611,0.572-1.215,0.891-1.814c0.086-0.158,0.176-0.313,0.266-0.47c0.225-0.411,0.461-0.819,0.709-1.228
				c0.113-0.184,0.225-0.363,0.334-0.545c0.266-0.42,0.545-0.838,0.828-1.256c0.131-0.189,0.254-0.379,0.393-0.573
				c0.33-0.458,0.668-0.903,1.016-1.335c0.045-0.06,0.09-0.121,0.139-0.178c0.332-0.41,0.672-0.813,1.008-1.201
				c0.072-0.076,0.139-0.149,0.203-0.223c0.324-0.367,0.652-0.727,0.986-1.076c0.049-0.054,0.098-0.103,0.143-0.153
				c0.318-0.333,0.645-0.659,0.967-0.985c0.045-0.049,0.094-0.096,0.141-0.143c0.346-0.347,0.695-0.688,1.039-1.023
				c0.082-0.076,0.156-0.151,0.24-0.225c0.348-0.338,0.701-0.678,1.053-1.012c0.322-0.313,0.648-0.619,0.967-0.932
				c0.068-0.065,0.137-0.129,0.203-0.193c0.338-0.322,0.67-0.648,0.996-0.976c0.07-0.067,0.143-0.139,0.207-0.204
				c0.34-0.334,0.666-0.668,0.988-1.005c0.035-0.039,0.072-0.077,0.113-0.116c0.293-0.316,0.592-0.635,0.881-0.957
				c0.031-0.043,0.07-0.079,0.105-0.122c0.018-0.015,0.033-0.034,0.045-0.051c0.311-0.347,0.609-0.702,0.895-1.061
				c0.061-0.071,0.117-0.146,0.176-0.22c0.289-0.363,0.57-0.734,0.838-1.114c0.014-0.017,0.029-0.036,0.039-0.051
				c0.039-0.054,0.068-0.108,0.109-0.161c0.164-0.238,0.322-0.483,0.482-0.73c0.065-0.102,0.125-0.201,0.186-0.306
				c0.156-0.249,0.305-0.505,0.445-0.763c0.035-0.061,0.074-0.12,0.107-0.184c0.006-0.02,0.018-0.037,0.023-0.053
				c0.184-0.338,0.35-0.682,0.516-1.032C284.824,109.348,284.865,109.256,284.898,109.166z"/>
			<path style="fill:#5D1403;" d="M236.414,107.74c0.023-0.279,0.061-0.551,0.086-0.828c0.039-0.408,0.076-0.815,0.129-1.217
				c0.037-0.292,0.086-0.582,0.123-0.869c0.061-0.377,0.109-0.759,0.176-1.132c0.049-0.3,0.109-0.594,0.162-0.888
				c0.074-0.358,0.137-0.715,0.213-1.07c0.061-0.298,0.139-0.592,0.207-0.889c0.082-0.344,0.162-0.686,0.246-1.024
				c0.082-0.296,0.166-0.585,0.248-0.877c0.092-0.332,0.188-0.663,0.289-0.989c0.09-0.291,0.191-0.578,0.283-0.866
				c0.105-0.318,0.215-0.639,0.326-0.95c0.064-0.184,0.139-0.363,0.203-0.547c0.27-0.701,0.547-1.392,0.844-2.076
				c0.061-0.135,0.119-0.273,0.176-0.404c0.348-0.76,0.717-1.504,1.104-2.234c0.1-0.191,0.205-0.379,0.311-0.571
				c0.238-0.427,0.479-0.849,0.727-1.265c0.119-0.197,0.242-0.397,0.363-0.596c0.291-0.467,0.592-0.926,0.906-1.376
				c0.086-0.12,0.16-0.247,0.244-0.369c0.379-0.538,0.775-1.068,1.184-1.587c0.098-0.124,0.199-0.24,0.297-0.363
				c0.314-0.391,0.637-0.778,0.967-1.158c0.15-0.173,0.307-0.342,0.461-0.512c0.303-0.332,0.604-0.658,0.916-0.977
				c0.174-0.18,0.34-0.351,0.52-0.523c0.314-0.313,0.637-0.621,0.965-0.92c0.166-0.155,0.328-0.309,0.494-0.455
				c0.549-0.483,1.1-0.957,1.67-1.409c0.086-0.065,0.172-0.124,0.252-0.188c0.502-0.391,1.012-0.766,1.535-1.133
				c0.232-0.164,0.461-0.324,0.697-0.481c0.203-0.135,0.408-0.27,0.611-0.403c0.285-0.184,0.576-0.361,0.865-0.537
				c0.203-0.125,0.408-0.248,0.615-0.369c0.307-0.18,0.619-0.353,0.938-0.521c0.197-0.111,0.389-0.221,0.584-0.322
				c0.367-0.191,0.738-0.375,1.111-0.555c0.156-0.076,0.305-0.155,0.459-0.229c0.518-0.245,1.045-0.481,1.582-0.706
				c0.142-0.062,0.295-0.114,0.438-0.175c0.395-0.16,0.791-0.318,1.197-0.47c0.207-0.077,0.418-0.148,0.627-0.224
				c0.348-0.123,0.697-0.245,1.051-0.359c0.23-0.078,0.461-0.146,0.697-0.221c0.338-0.104,0.684-0.207,1.031-0.306
				c0.236-0.065,0.479-0.132,0.719-0.196c0.355-0.092,0.713-0.179,1.072-0.269c0.236-0.054,0.469-0.108,0.705-0.163
				c0.398-0.088,0.797-0.168,1.201-0.244c0.203-0.037,0.398-0.082,0.607-0.121c0.609-0.107,1.223-0.21,1.842-0.295
				c0.828-0.115,1.642-0.217,2.451-0.303c0.217-0.024,0.43-0.047,0.641-0.068c0.684-0.068,1.359-0.127,2.023-0.176
				c0.127-0.008,0.262-0.021,0.383-0.029c0.775-0.051,1.535-0.085,2.281-0.105c0.184-0.006,0.359-0.006,0.543-0.012
				c0.604-0.011,1.199-0.013,1.783-0.005c0.174,0,0.346,0.002,0.516,0.005c0.715,0.016,1.412,0.049,2.102,0.096
				c0.135,0.006,0.256,0.021,0.387,0.03c0.572,0.045,1.139,0.1,1.69,0.163c0.18,0.023,0.359,0.045,0.533,0.065
				c0.662,0.086,1.307,0.184,1.938,0.303c0.033,0.004,0.066,0.014,0.098,0.02c0.6,0.115,1.18,0.245,1.754,0.391
				c0.209,0.051,0.424,0.105,0.633,0.164c0.217,0.054,0.42,0.115,0.629,0.176c0.244,0.07,0.48,0.145,0.719,0.223
				c0.199,0.064,0.406,0.133,0.606,0.201c0.232,0.084,0.465,0.17,0.691,0.26c0.195,0.075,0.391,0.145,0.578,0.227
				c0.225,0.092,0.443,0.191,0.664,0.285c0.188,0.086,0.371,0.17,0.56,0.257c0.35,0.167,0.693,0.341,1.031,0.522
				c-7.324-3.982-14.647-7.968-21.969-11.951c-0.281-0.15-0.566-0.297-0.853-0.441c-0.064-0.03-0.125-0.053-0.186-0.083
				c-0.18-0.086-0.365-0.17-0.547-0.251c-0.225-0.103-0.447-0.198-0.674-0.292c-0.189-0.08-0.381-0.15-0.57-0.227
				c-0.233-0.088-0.461-0.176-0.697-0.257c-0.197-0.071-0.404-0.139-0.604-0.204c-0.242-0.077-0.475-0.15-0.719-0.22
				c-0.205-0.063-0.42-0.122-0.629-0.18c-0.133-0.034-0.26-0.077-0.395-0.11c-0.078-0.02-0.16-0.034-0.24-0.055
				c-0.572-0.141-1.158-0.271-1.758-0.388c-0.033-0.006-0.063-0.015-0.094-0.019c-0.633-0.118-1.277-0.216-1.938-0.301
				c-0.176-0.025-0.355-0.045-0.535-0.066c-0.555-0.063-1.109-0.117-1.684-0.162c-0.127-0.013-0.258-0.025-0.392-0.033
				c-0.684-0.045-1.387-0.076-2.1-0.094c-0.172-0.004-0.344-0.004-0.52-0.006c-0.582-0.006-1.178-0.006-1.773,0.006
				c-0.188,0.004-0.367,0.004-0.555,0.012c-0.742,0.021-1.496,0.058-2.268,0.106c-0.135,0.009-0.27,0.021-0.4,0.028
				c-0.662,0.049-1.328,0.106-2.006,0.176c-0.217,0.022-0.432,0.043-0.648,0.067c-0.809,0.089-1.621,0.188-2.449,0.302
				c-0.623,0.088-1.238,0.19-1.85,0.3c-0.191,0.034-0.385,0.073-0.58,0.112c-0.416,0.079-0.828,0.163-1.23,0.252
				c-0.225,0.052-0.449,0.104-0.674,0.158c-0.371,0.087-0.742,0.179-1.107,0.277c-0.23,0.059-0.463,0.121-0.691,0.188
				c-0.359,0.102-0.713,0.205-1.068,0.313c-0.223,0.069-0.445,0.139-0.662,0.21c-0.365,0.119-0.725,0.243-1.086,0.369
				c-0.199,0.074-0.406,0.143-0.598,0.217c-0.416,0.152-0.816,0.314-1.217,0.479c-0.145,0.058-0.287,0.108-0.424,0.17
				c-0.52,0.216-1.027,0.442-1.529,0.677c-0.016,0.009-0.035,0.018-0.049,0.024c-0.162,0.078-0.318,0.159-0.48,0.236
				c-0.367,0.18-0.732,0.361-1.096,0.551c-0.197,0.1-0.389,0.21-0.576,0.315c-0.322,0.173-0.637,0.346-0.951,0.529
				c-0.199,0.119-0.398,0.241-0.602,0.363c-0.295,0.18-0.584,0.359-0.877,0.545c-0.199,0.131-0.4,0.264-0.602,0.397
				c-0.15,0.103-0.309,0.2-0.457,0.304c-0.09,0.06-0.162,0.125-0.248,0.182c-0.52,0.363-1.023,0.738-1.521,1.122
				c-0.086,0.067-0.18,0.13-0.266,0.202c-0.574,0.454-1.129,0.926-1.67,1.408c-0.055,0.045-0.104,0.086-0.156,0.129
				c-0.107,0.102-0.213,0.206-0.322,0.313c-0.33,0.306-0.656,0.613-0.977,0.93c-0.178,0.176-0.35,0.349-0.525,0.523
				c-0.309,0.32-0.615,0.648-0.912,0.979c-0.104,0.114-0.217,0.222-0.316,0.341c-0.051,0.053-0.094,0.109-0.141,0.167
				c-0.34,0.382-0.658,0.771-0.975,1.167c-0.096,0.117-0.201,0.236-0.291,0.356c-0.408,0.519-0.803,1.05-1.182,1.593
				c-0.02,0.02-0.037,0.041-0.055,0.063c-0.063,0.092-0.121,0.192-0.188,0.286c-0.309,0.459-0.615,0.92-0.912,1.391
				c-0.123,0.198-0.246,0.399-0.367,0.6c-0.25,0.414-0.49,0.834-0.727,1.259c-0.064,0.126-0.141,0.24-0.209,0.367
				c-0.033,0.066-0.063,0.141-0.098,0.207c-0.391,0.731-0.754,1.477-1.105,2.238c-0.057,0.128-0.111,0.258-0.166,0.389
				c-0.303,0.689-0.588,1.392-0.857,2.109c-0.037,0.102-0.084,0.195-0.119,0.293c-0.031,0.072-0.047,0.143-0.072,0.217
				c-0.123,0.334-0.236,0.672-0.346,1.014c-0.09,0.265-0.184,0.531-0.268,0.805c-0.107,0.348-0.207,0.697-0.305,1.053
				c-0.076,0.273-0.158,0.543-0.229,0.815c-0.096,0.359-0.178,0.726-0.264,1.093c-0.066,0.273-0.135,0.545-0.197,0.82
				c-0.076,0.375-0.148,0.757-0.215,1.139c-0.053,0.272-0.111,0.546-0.158,0.823c-0.07,0.394-0.119,0.796-0.182,1.19
				c-0.039,0.27-0.08,0.541-0.117,0.813c-0.049,0.418-0.09,0.84-0.135,1.264c-0.025,0.262-0.057,0.521-0.08,0.785
				c-0.039,0.463-0.063,0.935-0.09,1.406c-0.01,0.228-0.035,0.45-0.043,0.681c-0.029,0.701-0.049,1.409-0.049,2.127l21.973,11.948
				c0.004-0.711,0.02-1.422,0.049-2.125c0.012-0.232,0.029-0.463,0.041-0.693C236.352,108.664,236.377,108.197,236.414,107.74z"/>
			<g>
				<path style="fill:#D42A26;" d="M271.69,70.311c22.754-3.198,36.797,4.201,36.76,26.711
					c-0.029,14.667-5.734,21.609-16.014,31.412c-9.338,8.809-10.613,14.445-10.631,24.503l-19.275,2.708
					c0.025-13.464,1.619-20.855,7.004-28.429c6.49-9.1,16.93-12.95,16.951-25.909c0.02-11.084-6.611-14.076-14.35-12.989
					c-11.221,1.579-14.398,9.181-15.52,20.771l-20.381,2.861C236.275,89.431,250.518,73.283,271.69,70.311z"/>
			</g>
		</g>
	</g>
</g>
</svg>
